<?xml version="1.0" encoding="UTF-8" standalone="no"?>
<!-- Created with Inkscape (http://www.inkscape.org/) -->

<svg
   version="1.1"
   id="svg1"
   width="960"
   height="384"
   viewBox="0 0 960 384"
   sodipodi:docname="INVENTTA Path Labs Pvt. Ltd_Logo.svg"
   inkscape:version="1.4.2 (f4327f4, 2025-05-13)"
   xmlns:inkscape="http://www.inkscape.org/namespaces/inkscape"
   xmlns:sodipodi="http://sodipodi.sourceforge.net/DTD/sodipodi-0.dtd"
   xmlns="http://www.w3.org/2000/svg"
   xmlns:svg="http://www.w3.org/2000/svg">
  <defs
     id="defs1" />
  <sodipodi:namedview
     id="namedview1"
     pagecolor="#ffffff"
     bordercolor="#000000"
     borderopacity="0.25"
     inkscape:showpageshadow="2"
     inkscape:pageopacity="0.0"
     inkscape:pagecheckerboard="0"
     inkscape:deskcolor="#d1d1d1"
     inkscape:zoom="0.65296892"
     inkscape:cx="348.40862"
     inkscape:cy="227.42277"
     inkscape:window-width="1920"
     inkscape:window-height="991"
     inkscape:window-x="-9"
     inkscape:window-y="-9"
     inkscape:window-maximized="1"
     inkscape:current-layer="layer-Pr6">
    <inkscape:page
       x="0"
       y="0"
       inkscape:label="1"
       id="page1"
       width="960"
       height="384"
       margin="0"
       bleed="0" />
  </sodipodi:namedview>
  <g
     id="layer-Pr6"
     inkscape:groupmode="layer"
     inkscape:label="Layer 1">
    <path
       id="path2"
       d="m 184.6293,155.8834 c 0,-0.3019 -0.076,-0.5655 -0.2265,-0.792 -0.15,-0.2251 -0.415,-0.4051 -0.7906,-0.5355 -0.3767,-0.1329 -0.8765,-0.2449 -1.497,-0.3398 -0.6219,-0.0936 -1.4051,-0.1418 -2.3459,-0.1418 -0.9051,0 -1.677,0.0482 -2.3174,0.1418 -0.6414,0.0949 -1.15,0.2069 -1.5256,0.3398 -0.3778,0.1304 -0.6414,0.3104 -0.7917,0.5355 -0.1502,0.2265 -0.2268,0.4901 -0.2268,0.792 v 70.1926 c 0,0.3005 0.0854,0.5653 0.2552,0.7906 0.17,0.2265 0.4518,0.4054 0.8472,0.5369 0.3963,0.1318 0.9049,0.2449 1.5265,0.3385 0.6222,0.0949 1.366,0.1428 2.2326,0.1428 0.9408,0 1.724,-0.0479 2.3459,-0.1428 0.6205,-0.0936 1.1203,-0.2067 1.497,-0.3385 0.3756,-0.1315 0.6406,-0.3104 0.7906,-0.5369 0.1505,-0.2253 0.2265,-0.4901 0.2265,-0.7906 z m 185.8407,27.4663 -6.6106,7.0112 7.0109,6.611 6.6112,-7.011 z m 233.7007,-10.0596 -6.6112,7.0112 7.0126,6.611 6.6095,-7.0138 z m 31.6273,-15.4287 c 0.3005,-0.8288 0.4617,-1.4975 0.4813,-2.0072 0.0187,-0.5074 -0.123,-0.8938 -0.4232,-1.1574 -0.303,-0.2633 -0.8019,-0.4334 -1.499,-0.5085 -0.6964,-0.0754 -1.6302,-0.1134 -2.7961,-0.1134 -1.1698,0 -2.1019,0.0283 -2.7975,0.0839 -0.6996,0.0578 -1.2265,0.1514 -1.5826,0.2843 -0.3605,0.1307 -0.623,0.3104 -0.7914,0.5355 -0.1701,0.2268 -0.3314,0.5085 -0.4805,0.8484 l -4.8177,13.6692 3e-4,3e-4 -16.7721,48.3279 h -0.0578 l -16.0359,-47.1373 -4.9884,-14.6345 c -0.112,-0.3387 -0.2636,-0.6307 -0.4521,-0.8767 -0.1871,-0.2452 -0.4618,-0.4522 -0.8172,-0.6208 -0.3612,-0.1698 -0.8683,-0.2917 -1.5273,-0.3668 -0.6585,-0.0754 -1.5169,-0.1134 -2.5711,-0.1134 -1.0944,0 -1.9882,0.0482 -2.6838,0.1417 -0.6996,0.0936 -1.1872,0.2719 -1.4692,0.5369 -0.2832,0.2622 -0.4161,0.6489 -0.3966,1.1585 0.0185,0.5074 0.1775,1.1761 0.4802,2.0058 l 24.5282,67.9323 c 0.1488,0.4136 0.3472,0.7523 0.5947,1.0171 0.2427,0.2636 0.601,0.4717 1.0726,0.6216 0.4714,0.1505 1.0749,0.254 1.8088,0.3118 0.7351,0.0553 1.666,0.0839 2.7964,0.0839 1.2056,0 2.2051,-0.0286 2.9971,-0.0839 0.7903,-0.0578 1.4309,-0.1613 1.9207,-0.3118 0.4887,-0.1499 0.8657,-0.3668 1.1302,-0.6497 0.2625,-0.282 0.4697,-0.6307 0.6208,-1.0457 z m -56.2901,65.5016 c 0,-0.7166 -0.0383,-1.3371 -0.1134,-1.8652 -0.0737,-0.5272 -0.197,-0.9507 -0.366,-1.2711 -0.1695,-0.3214 -0.3764,-0.5561 -0.6227,-0.7066 -0.2452,-0.1514 -0.5185,-0.2265 -0.8201,-0.2265 h -20.5719 v -63.4108 c 0,-0.3019 -0.0737,-0.5652 -0.225,-0.7903 -0.1517,-0.2267 -0.4142,-0.4053 -0.792,-0.5368 -0.3768,-0.1321 -0.8757,-0.2452 -1.4962,-0.3391 -0.6216,-0.0935 -1.4037,-0.1414 -2.3468,-0.1414 -0.9037,0 -1.6758,0.0479 -2.3162,0.1414 -0.6417,0.0939 -1.1488,0.207 -1.5267,0.3391 -0.3781,0.1315 -0.6392,0.3101 -0.7917,0.5368 -0.1514,0.2251 -0.2254,0.4884 -0.2254,0.7903 v 63.4108 h -20.5721 c -0.3002,0 -0.5749,0.0751 -0.8175,0.2265 -0.2475,0.1505 -0.4456,0.3852 -0.5948,0.7066 -0.1513,0.3204 -0.2732,0.7439 -0.3668,1.2711 -0.0949,0.5281 -0.1425,1.1486 -0.1425,1.8652 0,0.7155 0.0476,1.3473 0.1425,1.8927 0.0936,0.5454 0.2155,0.9898 0.3668,1.3286 0.1492,0.3399 0.3473,0.5836 0.5948,0.735 0.2426,0.15 0.5173,0.2254 0.8175,0.2254 h 50.864 c 0.3016,0 0.5749,-0.0754 0.8201,-0.2254 0.2463,-0.1514 0.4532,-0.3951 0.6227,-0.735 0.169,-0.3388 0.2923,-0.7832 0.366,-1.3286 0.0751,-0.5454 0.1134,-1.1772 0.1134,-1.8927 z m -57.9858,0 c 0,-0.7166 -0.038,-1.3371 -0.1131,-1.8652 -0.074,-0.5272 -0.1973,-0.9507 -0.3657,-1.2711 -0.1701,-0.3214 -0.3767,-0.5561 -0.623,-0.7066 -0.2452,-0.1514 -0.5185,-0.2265 -0.8204,-0.2265 h -20.5716 v -63.4108 c 0,-0.3019 -0.074,-0.5652 -0.2253,-0.7903 -0.1517,-0.2267 -0.4139,-0.4053 -0.7918,-0.5368 -0.377,-0.1321 -0.8753,-0.2452 -1.4961,-0.3391 -0.6219,-0.0935 -1.4037,-0.1414 -2.3468,-0.1414 -0.904,0 -1.6761,0.0479 -2.3162,0.1414 -0.6415,0.0939 -1.1486,0.207 -1.5267,0.3391 -0.3782,0.1315 -0.6392,0.3101 -0.792,0.5368 -0.1514,0.2251 -0.2251,0.4884 -0.2251,0.7903 v 63.4108 h -20.5721 c -0.3005,0 -0.5749,0.0751 -0.8173,0.2265 -0.2474,0.1505 -0.4459,0.3852 -0.5947,0.7066 -0.1516,0.3204 -0.2735,0.7439 -0.3673,1.2711 -0.0947,0.5281 -0.1426,1.1486 -0.1426,1.8652 0,0.7155 0.0479,1.3473 0.1426,1.8927 0.0938,0.5454 0.2157,0.9898 0.3673,1.3286 0.1488,0.3399 0.3473,0.5836 0.5947,0.735 0.2424,0.15 0.5168,0.2254 0.8173,0.2254 h 50.8637 c 0.3019,0 0.5752,-0.0754 0.8204,-0.2254 0.2463,-0.1514 0.4529,-0.3951 0.623,-0.735 0.1684,-0.3388 0.2917,-0.7832 0.3657,-1.3286 0.0751,-0.5454 0.1131,-1.1772 0.1131,-1.8927 z m -65.2748,-64.9366 c 0,-0.7535 -0.1282,-1.3941 -0.3804,-1.9222 -0.2549,-0.527 -0.5837,-0.9604 -0.9927,-1.2991 -0.4111,-0.3396 -0.868,-0.5848 -1.3751,-0.7351 -0.5063,-0.1499 -1.0137,-0.225 -1.5185,-0.225 h -3.2148 c -1.0148,0 -1.8998,0.1032 -2.6598,0.3101 -0.7608,0.2066 -1.4813,0.5836 -2.1622,1.1304 -0.6835,0.5466 -1.3669,1.2892 -2.0464,2.2323 -0.6834,0.942 -1.4074,2.1473 -2.1721,3.6165 l -22.3081,41.5964 c -1.1659,2.1475 -2.3432,4.3985 -3.5278,6.7527 -1.1857,2.3545 -2.2875,4.6443 -3.3071,6.8669 h -0.1134 c 0.0751,-2.7124 0.1304,-5.4819 0.1686,-8.3077 0.0383,-2.8256 0.0579,-5.6319 0.0579,-8.4206 v -44.1383 c 0,-0.2645 -0.08,-0.5185 -0.2387,-0.7634 -0.1579,-0.2449 -0.4272,-0.4334 -0.8053,-0.5652 -0.377,-0.1318 -0.8757,-0.2452 -1.4911,-0.3388 -0.6156,-0.0935 -1.4014,-0.1414 -2.357,-0.1414 -0.9544,0 -1.7387,0.0479 -2.3544,0.1414 -0.618,0.0936 -1.1033,0.207 -1.4613,0.3388 -0.3586,0.1318 -0.6157,0.3203 -0.7747,0.5652 -0.1587,0.2449 -0.2389,0.4989 -0.2389,0.7634 v 67.479 c 0,1.5072 0.426,2.5807 1.2821,3.2222 0.8569,0.6406 1.7889,0.9606 2.8023,0.9606 h 4.7826 c 1.1265,0 2.0687,-0.0935 2.8281,-0.2832 0.7586,-0.1885 1.4383,-0.4986 2.043,-0.9323 0.6006,-0.4334 1.1846,-1.0355 1.7472,-1.8076 0.5653,-0.773 1.1574,-1.7433 1.7782,-2.9121 L 435.3874,189.51 c 1.0551,-1.9594 2.0747,-3.8702 3.0586,-5.7368 0.9836,-1.8643 1.9281,-3.7012 2.8406,-5.5103 0.9088,-1.8073 1.8099,-3.5881 2.7028,-5.3413 0.8926,-1.7498 1.7742,-3.513 2.6498,-5.2838 h 0.0553 c -0.0737,2.9764 -0.1219,6.0752 -0.1389,9.2977 -0.0224,3.2201 -0.0297,6.3204 -0.0297,9.2965 v 39.6748 c 0,0.2633 0.0799,0.5085 0.2386,0.7336 0.1593,0.2265 0.4264,0.4238 0.8034,0.5947 0.3804,0.1687 0.8753,0.2909 1.4935,0.3668 0.6157,0.0754 1.4185,0.1123 2.4146,0.1123 0.8731,0 1.6299,-0.0369 2.2657,-0.1123 0.6341,-0.0759 1.1325,-0.1981 1.4911,-0.3668 0.3583,-0.1709 0.6179,-0.3682 0.7769,-0.5947 0.1588,-0.2251 0.2376,-0.4703 0.2376,-0.7336 z m -102.0694,30.236 v -26.1669 h 28.9931 c 0.3001,0 0.5748,-0.0751 0.8197,-0.2265 0.2427,-0.1502 0.4593,-0.3855 0.6489,-0.7055 0.1885,-0.3215 0.3203,-0.7353 0.398,-1.2436 0.0737,-0.5099 0.1119,-1.1392 0.1119,-1.8938 0,-0.6772 -0.0382,-1.2708 -0.1119,-1.7805 -0.0777,-0.5074 -0.2095,-0.9323 -0.398,-1.2707 -0.1896,-0.3402 -0.4062,-0.5851 -0.6489,-0.7353 -0.2449,-0.1514 -0.5196,-0.2254 -0.8197,-0.2254 h -35.0969 c -0.8669,0 -1.6869,0.2908 -2.4591,0.8745 -0.7719,0.5848 -1.1585,1.6118 -1.1585,3.0807 v 65.2195 c 0,1.4701 0.3866,2.4973 1.1585,3.081 0.7722,0.5834 1.5922,0.8753 2.4591,0.8753 h 34.7026 c 0.3007,0 0.5714,-0.0751 0.8175,-0.2256 0.2452,-0.1525 0.4422,-0.396 0.5938,-0.735 0.1491,-0.3396 0.2719,-0.7634 0.368,-1.2705 0.0938,-0.51 0.1417,-1.1404 0.1417,-1.8938 0,-0.6787 -0.0479,-1.272 -0.1417,-1.7819 -0.0961,-0.5071 -0.2189,-0.9235 -0.368,-1.2436 -0.1516,-0.3186 -0.3486,-0.5553 -0.5938,-0.7055 -0.2461,-0.1502 -0.5168,-0.2254 -0.8175,-0.2254 H 354.1779 V 196.5183 Z M 308.3434,156.109 c -0.1517,-0.415 -0.3586,-0.7534 -0.6219,-1.017 -0.2634,-0.2645 -0.6316,-0.4714 -1.1021,-0.6217 -0.4717,-0.1502 -1.0738,-0.2537 -1.8088,-0.3115 -0.7339,-0.0553 -1.6489,-0.0839 -2.7408,-0.0839 -0.8289,0 -1.554,0.009 -2.1762,0.0286 -0.6216,0.0196 -1.1582,0.0652 -1.6104,0.1403 -0.4518,0.0763 -0.8384,0.1599 -1.1588,0.2535 -0.32,0.0949 -0.5933,0.2168 -0.8183,0.3682 -0.2271,0.1505 -0.4054,0.3302 -0.5372,0.5369 -0.1332,0.2069 -0.2548,0.4617 -0.3679,0.7636 l -23.9066,67.932 c -0.3019,0.8286 -0.4617,1.4973 -0.4802,2.0069 -0.0195,0.5077 0.1418,0.8944 0.4802,1.1574 0.3399,0.2637 0.8853,0.4337 1.639,0.5086 0.7535,0.0754 1.7705,0.1136 3.0526,0.1136 1.0537,0 1.8925,-0.0283 2.5141,-0.0839 0.6219,-0.0578 1.1024,-0.1613 1.442,-0.3112 0.3387,-0.1505 0.5936,-0.3487 0.7622,-0.5939 0.1701,-0.2449 0.3303,-0.5564 0.4802,-0.9331 l 20.9682,-61.5456 h 0.0569 l 20.4015,61.4333 c 0.1137,0.4136 0.2452,0.7526 0.3955,1.0171 0.1502,0.2636 0.4153,0.4717 0.7917,0.6222 0.377,0.1499 0.904,0.2534 1.5823,0.3112 0.6783,0.0556 1.5826,0.0839 2.7128,0.0839 1.167,0 2.0905,-0.0482 2.7691,-0.1417 0.6786,-0.0935 1.139,-0.2735 1.3853,-0.5369 0.2438,-0.2647 0.3388,-0.6488 0.2821,-1.1585 -0.057,-0.5074 -0.2353,-1.1772 -0.5369,-2.0058 z m -48.9997,2.3174 c 0,-0.7535 -0.1267,-1.3941 -0.3804,-1.9222 -0.2523,-0.527 -0.5836,-0.9604 -0.9921,-1.2991 -0.4102,-0.3396 -0.8671,-0.5848 -1.3743,-0.7351 -0.5076,-0.1499 -1.0136,-0.225 -1.5196,-0.225 h -3.2151 c -1.0133,0 -1.8997,0.1032 -2.6597,0.3101 -0.7608,0.2066 -1.48,0.5836 -2.1623,1.1304 -0.682,0.5466 -1.364,1.2892 -2.0463,2.2323 -0.682,0.942 -1.4049,2.1473 -2.1708,3.6165 l -22.3092,41.5964 c -1.1662,2.1475 -2.342,4.3985 -3.5266,6.7527 -1.1857,2.3545 -2.2878,4.6443 -3.3086,6.8669 h -0.1134 c 0.0751,-2.7124 0.1318,-5.4819 0.1701,-8.3077 0.0369,-2.8256 0.0564,-5.6319 0.0564,-8.4206 v -44.1383 c 0,-0.2645 -0.0799,-0.5185 -0.2387,-0.7634 -0.1587,-0.2449 -0.4271,-0.4334 -0.8053,-0.5652 -0.3778,-0.1318 -0.8742,-0.2452 -1.4899,-0.3388 -0.6168,-0.0935 -1.4026,-0.1414 -2.3567,-0.1414 -0.9544,0 -1.7388,0.0479 -2.3559,0.1414 -0.6165,0.0936 -1.1029,0.207 -1.4601,0.3388 -0.3583,0.1318 -0.6168,0.3203 -0.7758,0.5652 -0.1588,0.2449 -0.2387,0.4989 -0.2387,0.7634 v 67.479 c 0,1.5072 0.4272,2.5807 1.2832,3.2222 0.8555,0.6406 1.7887,0.9606 2.7998,0.9606 h 4.7837 c 1.128,0 2.0699,-0.0935 2.8282,-0.2832 0.7599,-0.1885 1.4394,-0.4986 2.0429,-0.9323 0.6021,-0.4334 1.1846,-1.0355 1.7498,-1.8076 0.5627,-0.773 1.1549,-1.7433 1.7745,-2.9121 l 17.151,-32.1003 c 1.0565,-1.9594 2.0761,-3.8702 3.0586,-5.7368 0.9839,-1.8643 1.9296,-3.7012 2.8409,-5.5103 0.9099,-1.8073 1.8111,-3.5881 2.704,-5.3413 0.8915,-1.7498 1.7742,-3.513 2.6487,-5.2838 h 0.0564 c -0.0751,2.9764 -0.1219,6.0752 -0.1418,9.2977 -0.0184,3.2201 -0.0283,6.3204 -0.0283,9.2965 v 39.6748 c 0,0.2633 0.0805,0.5085 0.2392,0.7336 0.1588,0.2265 0.4272,0.4238 0.8051,0.5947 0.3767,0.1687 0.8742,0.2909 1.4913,0.3668 0.6165,0.0754 1.4207,0.1123 2.4145,0.1123 0.8745,0 1.6305,-0.0369 2.2658,-0.1123 0.6366,-0.0759 1.1338,-0.1981 1.4924,-0.3668 0.3569,-0.1709 0.6157,-0.3682 0.7744,-0.5947 0.1599,-0.2251 0.2387,-0.4703 0.2387,-0.7336 z"
       style="fill:#2e71ac;fill-opacity:1;fill-rule:nonzero;stroke:none"
       transform="matrix(1.3333333,0,0,-1.3333333,0,384)" />
    <path
       id="path3"
       d="M 172.9281,146.1022 H 640.834 v -2.4628 H 172.9281 Z"
       style="fill:#27599a;fill-opacity:1;fill-rule:nonzero;stroke:none"
       transform="matrix(1.3333333,0,0,-1.3333333,0,384)" />
    <path
       id="path4"
       d="m 471.4923,118.3277 c 0.6069,-0.1598 1.4088,-0.2242 2.3037,-0.2242 3.3936,0 5.4119,1.6651 5.4119,4.5783 0,2.8814 -2.0183,4.2579 -5.0916,4.2579 -1.2152,0 -2.1438,-0.127 -2.624,-0.224 z m 157.2208,-8.0674 c 0.864,-0.5119 2.3369,-1.0896 3.7454,-1.0896 2.018,0 2.9775,0.9936 2.9775,2.3049 0,1.3458 -0.7991,2.082 -2.8494,2.8508 -2.8171,1.0244 -4.1298,2.5276 -4.1298,4.386 0,2.4968 2.0489,4.5456 5.3476,4.5456 1.5675,0 2.944,-0.4158 3.7766,-0.96 l -0.6724,-2.0172 c -0.6083,0.3521 -1.7286,0.8963 -3.1694,0.8963 -1.6648,0 -2.5611,-0.9601 -2.5611,-2.114 0,-1.3114 0.8963,-1.8876 2.9131,-2.6558 2.6572,-0.9927 4.0661,-2.3372 4.0661,-4.6755 0,-2.7521 -2.1439,-4.6743 -5.7626,-4.6743 -1.6968,0 -3.2658,0.4496 -4.354,1.0888 z m -20.6479,3.3608 c 0,-0.3521 0.0309,-0.7041 0.095,-1.0244 0.5454,-1.9528 2.2102,-3.2973 4.227,-3.2973 2.9775,0 4.7064,2.4009 4.7064,5.9547 0,3.1374 -1.6007,5.7946 -4.6103,5.7946 -1.9222,0 -3.7148,-1.3447 -4.2579,-3.4565 -0.0961,-0.3532 -0.1602,-0.7376 -0.1602,-1.1846 z m -2.817,16.5206 h 2.817 v -9.7013 h 0.0641 c 0.9913,1.7289 2.7842,2.8174 5.2824,2.8174 3.842,0 6.531,-3.2004 6.531,-7.8747 0,-5.5715 -3.5215,-8.3248 -6.9792,-8.3248 -2.2422,0 -4.0017,0.8646 -5.1863,2.9135 h -0.0643 l -0.1596,-2.5614 h -2.4347 c 0.0975,1.0565 0.1296,2.6252 0.1296,4.0017 z m -12.9028,-14.8238 c -3.0736,0.0652 -6.5628,-0.4799 -6.5628,-3.4894 0,-1.8567 1.2164,-2.6893 2.6252,-2.6893 2.0486,0 3.3616,1.2807 3.8098,2.5935 0.0958,0.288 0.1278,0.608 0.1278,0.8963 z m 2.7533,-4.1927 c 0,-1.3459 0.0641,-2.6572 0.2242,-3.7148 h -2.5293 l -0.256,1.9528 h -0.0961 c -0.8325,-1.2164 -2.5305,-2.3049 -4.7395,-2.3049 -3.1363,0 -4.737,2.2091 -4.737,4.4499 0,3.7459 3.3296,5.7945 9.3164,5.7639 v 0.3201 c 0,1.2807 -0.3524,3.6164 -3.5215,3.5858 -1.4726,0 -2.9773,-0.4161 -4.066,-1.1537 l -0.6401,1.8887 c 1.2801,0.8016 3.1691,1.3448 5.1222,1.3448 4.7701,0 5.9227,-3.2335 5.9227,-6.3377 z m -31.5981,17.8637 h 2.8171 v -19.2405 h 9.2203 v -2.3372 h -12.0374 z m -35.8866,1.1528 h 2.8174 v -9.6693 h 0.0637 c 0.4482,0.8014 1.1515,1.5378 2.0172,1.986 0.8325,0.5125 1.8246,0.7994 2.8814,0.7994 2.0809,0 5.4105,-1.2807 5.4105,-6.6272 v -9.2202 h -2.8176 v 8.9011 c 0,2.5282 -0.9284,4.6102 -3.5856,4.6102 -1.8258,0 -3.2335,-1.2807 -3.7789,-2.817 -0.1601,-0.3856 -0.1907,-0.802 -0.1907,-1.3451 v -9.3492 h -2.8174 z m -12.8389,-3.5218 v -3.7136 h 4.0339 v -2.1447 h -4.0339 v -8.3571 c 0,-1.9196 0.5442,-3.0084 2.1132,-3.0084 0.7682,0 1.2163,0.0629 1.6325,0.1924 l 0.1281,-2.1452 c -0.5443,-0.1919 -1.4086,-0.3853 -2.4971,-0.3853 -1.3127,0 -2.3689,0.4496 -3.0427,1.1846 -0.7684,0.864 -1.0871,2.2423 -1.0871,4.0669 v 8.4521 h -2.4023 v 2.1447 h 2.4023 v 2.8491 z m -16.1672,-11.302 c -3.0736,0.0652 -6.563,-0.4799 -6.563,-3.4894 0,-1.8567 1.2166,-2.6893 2.6263,-2.6893 2.0489,0 3.3607,1.2807 3.8089,2.5935 0.0969,0.288 0.1278,0.608 0.1278,0.8963 z m 2.7533,-4.1927 c 0,-1.3459 0.0652,-2.6572 0.2242,-3.7148 h -2.529 l -0.2563,1.9528 h -0.0961 c -0.8325,-1.2164 -2.529,-2.3049 -4.7381,-2.3049 -3.1376,0 -4.7372,2.2091 -4.7372,4.4499 0,3.7459 3.3284,5.7945 9.3152,5.7639 v 0.3201 c 0,1.2807 -0.3521,3.6164 -3.5215,3.5858 -1.4715,0 -2.9775,-0.4161 -4.066,-1.1537 l -0.6404,1.8887 c 1.2819,0.8016 3.1694,1.3448 5.1225,1.3448 4.7713,0 5.9227,-3.2335 5.9227,-6.3377 z m -32.6554,17.5765 c 1.3445,0.2563 3.1065,0.4467 5.3479,0.4467 2.7516,0 4.7687,-0.6386 6.0505,-1.7926 1.1832,-1.0244 1.9211,-2.592 1.9211,-4.5142 0,-1.9527 -0.5763,-3.4894 -1.6971,-4.6099 -1.4741,-1.5687 -3.875,-2.369 -6.596,-2.369 -0.8311,0 -1.5999,0.0318 -2.2399,0.1919 v -8.6439 h -2.7865 z"
       style="fill:#4dc194;fill-opacity:1;fill-rule:nonzero;stroke:none"
       transform="matrix(1.3333333,0,0,-1.3333333,0,384)" />
    <path
       id="path5"
       d="m 138.5646,137.9951 c -3.7656,4.161 -8.25,4.6891 -12.998,5.248 -5.2183,0.6135 -10.6166,1.2476 -15.4284,6.5693 -5.37,5.9347 -6.1112,12.5717 -6.1112,18.8629 0,6.2844 0.7401,12.9164 6.1112,18.8549 4.8118,5.3192 10.2101,5.9559 15.4295,6.569 4.748,0.5593 9.2313,1.0874 12.9969,5.2484 3.0376,3.3588 4.71,7.8225 4.71,12.5691 0,4.7503 -1.6724,9.2151 -4.71,12.5719 -3.0368,3.3577 -7.0739,5.2047 -11.3689,5.2047 -4.2948,0 -8.3322,-1.8493 -11.3704,-5.2047 -3.7638,-4.1632 -4.2417,-9.1216 -4.7466,-14.3694 -0.5542,-5.7713 -1.129,-11.7396 -5.9411,-17.0603 -4.8118,-5.3217 -10.2101,-5.9558 -15.431,-6.5693 -4.7466,-0.5612 -9.231,-1.0859 -12.9966,-5.25 -3.0367,-3.3554 -4.71,-7.8188 -4.71,-12.5668 0.0011,-4.7495 1.6733,-9.2143 4.71,-12.5711 3.7664,-4.163 8.25,-4.69 12.9966,-5.2501 5.2209,-0.6134 10.6177,-1.2498 15.4298,-6.5704 4.8119,-5.3192 5.3881,-11.2864 5.9423,-17.0578 0.5049,-5.2477 0.9828,-10.2075 4.7466,-14.3694 6.2703,-6.9312 16.4704,-6.9312 22.7393,0 3.0376,3.3583 4.71,7.824 4.71,12.5706 0,4.7454 -1.6724,9.2103 -4.71,12.5705"
       style="fill:#4dc194;fill-opacity:1;fill-rule:nonzero;stroke:none"
       transform="matrix(1.3333333,0,0,-1.3333333,0,384)" />
    <path
       id="path6"
       d="m 72.0006,125.4246 c 0,-4.7466 1.6721,-9.2123 4.7097,-12.5706 6.2688,-6.9312 16.469,-6.9312 22.739,0 3.7653,4.1619 4.242,9.1217 4.7469,14.3694 0.5553,5.7714 1.1304,11.7386 5.9423,17.0578 4.8109,5.3206 10.2089,5.957 15.4286,6.5704 4.7481,0.559 9.2314,1.0871 12.9978,5.2501 3.0353,3.3568 4.7089,7.8216 4.71,12.5711 0,4.748 -1.6733,9.2114 -4.71,12.5668 -3.7653,4.1641 -8.2497,4.6888 -12.9978,5.25 -5.2197,0.6135 -10.6177,1.2476 -15.4295,6.5693 -4.8124,5.3207 -5.3861,11.289 -5.9414,17.0603 -0.5049,5.2478 -0.9816,10.2062 -4.7469,14.3694 -3.0379,3.3554 -7.075,5.2047 -11.3701,5.2047 -4.2947,0 -8.3324,-1.847 -11.3689,-5.2047 -3.0376,-3.3568 -4.7097,-7.8216 -4.7097,-12.5719 0,-4.7466 1.6721,-9.2103 4.7097,-12.5691 3.7656,-4.161 8.2488,-4.6891 12.9969,-5.2484 5.2194,-0.6131 10.6177,-1.2498 15.4309,-6.569 5.3697,-5.9385 6.111,-12.5705 6.111,-18.8549 0,-6.2912 -0.7424,-12.9282 -6.111,-18.8629 -4.8132,-5.3217 -10.2115,-5.9558 -15.4309,-6.5693 -4.7469,-0.5589 -9.2313,-1.087 -12.9969,-5.248 -3.0376,-3.3602 -4.7097,-7.8251 -4.7097,-12.5705"
       style="fill:#2e71ac;fill-opacity:1;fill-rule:nonzero;stroke:none"
       transform="matrix(1.3333333,0,0,-1.3333333,0,384)" />
    <path
       id="path7"
       d="m 178.958,82.2166 h -6.0582 v 2.1867 h 14.7475 v -2.1867 h -6.0888 V 64.4842 h -2.6005 z m 465.5242,-16.196 c 0,1.0933 0.7413,1.8618 1.7745,1.8618 1.0341,0 1.7433,-0.7685 1.7433,-1.8618 0,-1.0638 -0.6795,-1.8618 -1.7745,-1.8618 -1.0341,0 -1.7433,0.798 -1.7433,1.8618 z m -9.7498,0 c 0,1.0933 0.739,1.8618 1.7723,1.8618 1.034,0 1.7433,-0.7685 1.7433,-1.8618 0,-1.0638 -0.6772,-1.8618 -1.7717,-1.8618 -1.0346,0 -1.7439,0.798 -1.7439,1.8618 z m -9.7517,0 c 0,1.0933 0.7384,1.8618 1.7716,1.8618 1.0344,0 1.7436,-0.7685 1.7436,-1.8618 0,-1.0638 -0.6772,-1.8618 -1.7719,-1.8618 -1.0341,0 -1.7433,0.798 -1.7433,1.8618 z m -11.1135,8.3052 c 0,1.6835 -0.0281,3.1329 -0.1182,4.4626 h 2.2756 l 0.0888,-2.8077 h 0.1179 c 0.6514,1.9196 2.2178,3.1326 3.9611,3.1326 0.2957,0 0.5023,-0.0295 0.7376,-0.0896 v -2.4531 c -0.2645,0.0604 -0.5304,0.0901 -0.8841,0.0901 -1.8335,0 -3.1337,-1.3892 -3.4869,-3.3398 -0.0604,-0.3546 -0.1208,-0.7681 -0.1208,-1.2123 v -7.6244 h -2.571 z m -9.3651,-1.3011 c 0.0286,1.6552 -0.6806,4.2273 -3.6077,4.2273 -2.6274,0 -3.7822,-2.4244 -3.9895,-4.2273 z m -7.6252,-1.8618 c 0.0589,-3.5163 2.306,-4.9646 4.9056,-4.9646 1.8618,0 2.9846,0.3252 3.9609,0.7387 l 0.4422,-1.8615 c -0.9162,-0.415 -2.4812,-0.8881 -4.7566,-0.8881 -4.4056,0 -7.0347,2.8973 -7.0347,7.2122 0,4.3158 2.5415,7.7131 6.7073,7.7131 4.6704,0 5.9117,-4.108 5.9117,-6.738 0,-0.5317 -0.0581,-0.9459 -0.0887,-1.2118 z m -11.5566,11.7329 v -4.1077 h 3.725 v -1.9797 h -3.725 v -7.7145 c 0,-1.7716 0.5029,-2.7776 1.9531,-2.7776 0.6783,0 1.1812,0.0887 1.506,0.1771 l 0.1168,-1.9502 c -0.4997,-0.2069 -1.2977,-0.3546 -2.3034,-0.3546 -1.2121,0 -2.1858,0.3838 -2.8089,1.093 -0.739,0.7688 -1.0034,2.0407 -1.0034,3.7236 v 7.8032 h -2.2164 v 1.9797 h 2.2164 v 3.4282 z m -13.4144,0 v -4.1077 h 3.7222 v -1.9797 h -3.7222 v -7.7145 c 0,-1.7716 0.5023,-2.7776 1.9503,-2.7776 0.6811,0 1.1834,0.0887 1.5083,0.1771 l 0.1173,-1.9502 c -0.5026,-0.2069 -1.3005,-0.3546 -2.3065,-0.3546 -1.209,0 -2.1858,0.3838 -2.8063,1.093 -0.7384,0.7688 -1.0046,2.0407 -1.0046,3.7236 v 7.8032 h -2.2176 v 1.9797 h 2.2176 v 3.4282 z m -12.5008,-9.8711 c 0.0281,1.6552 -0.6811,4.2273 -3.6056,4.2273 -2.63,0 -3.7826,-2.4244 -3.9895,-4.2273 z m -7.6235,-1.8618 c 0.0567,-3.5163 2.304,-4.9646 4.9034,-4.9646 1.8641,0 2.9872,0.3252 3.9611,0.7387 l 0.4445,-1.8615 c -0.9164,-0.415 -2.4834,-0.8881 -4.7591,-0.8881 -4.4033,0 -7.0347,2.8973 -7.0347,7.2122 0,4.3158 2.5415,7.7131 6.7096,7.7131 4.6706,0 5.9116,-4.108 5.9116,-6.738 0,-0.5317 -0.0603,-0.9459 -0.0887,-1.2118 z M 532.4525,70.217 c 0,-0.3248 0.0604,-0.6503 0.121,-0.9453 0.502,-1.8029 2.0084,-3.0442 3.9008,-3.0442 2.7175,0 4.3429,2.2164 4.3429,5.4978 0,2.8667 -1.4763,5.3192 -4.2542,5.3192 -1.7756,0 -3.4294,-1.2115 -3.9614,-3.1926 -0.0604,-0.2957 -0.1491,-0.6489 -0.1491,-1.0639 z m -2.689,-5.7328 c 0.0604,0.9751 0.1179,2.4231 0.1179,3.6938 v 17.2888 h 2.5711 v -8.9835 h 0.0604 c 0.9164,1.5959 2.571,2.63 4.8775,2.63 3.545,0 6.0579,-2.9563 6.0287,-7.3004 0,-5.1123 -3.2224,-7.6541 -6.4139,-7.6541 -2.0679,0 -3.7225,0.798 -4.7874,2.6895 h -0.0902 l -0.1168,-2.3641 z m -20.2997,8.6584 c 0,0.4434 -0.0281,0.8286 -0.1466,1.1832 -0.4739,1.5072 -1.7433,2.7474 -3.6363,2.7474 -2.4823,0 -4.2565,-2.0985 -4.2565,-5.408 0,-2.8063 1.4185,-5.142 4.2273,-5.142 1.5943,0 3.045,1.0046 3.6052,2.6597 0.1491,0.4442 0.2069,0.9454 0.2069,1.3887 z m 2.6892,5.6458 c -0.0578,-1.0346 -0.1182,-2.1872 -0.1182,-3.9305 v -8.3064 c 0,-3.2802 -0.6488,-5.2886 -2.039,-6.5299 -1.3878,-1.3013 -3.3987,-1.7149 -5.2024,-1.7149 -1.7127,0 -3.6054,0.4136 -4.7568,1.1817 l 0.6488,1.9815 c 0.946,-0.5925 2.4245,-1.1243 4.1967,-1.1243 2.6595,0 4.61,1.3887 4.61,4.9955 v 1.5957 h -0.0564 c -0.7994,-1.3298 -2.3363,-2.3936 -4.5536,-2.3936 -3.5452,0 -6.0865,3.0143 -6.0865,6.9755 0,4.8452 3.1618,7.5946 6.442,7.5946 2.4826,0 3.8421,-1.3 4.4615,-2.4823 h 0.06 l 0.1183,2.1574 z m -32.3612,-3.8721 c 0,1.4777 -0.0283,2.6906 -0.1184,3.8724 h 2.3065 l 0.1466,-2.3641 h 0.0601 c 0.7092,1.3581 2.3643,2.6881 4.7284,2.6881 1.98,0 5.0533,-1.1823 5.0533,-6.0877 v -8.5416 h -2.6007 v 8.246 c 0,2.3051 -0.8555,4.2258 -3.3086,4.2258 -1.715,0 -3.045,-1.2115 -3.4869,-2.6597 -0.1208,-0.3249 -0.1786,-0.7682 -0.1786,-1.2115 v -8.6006 h -2.6017 z m -10.5488,3.8724 h 2.5994 V 64.4845 h -2.5994 z m 2.8961,4.0178 c 0.0281,-0.8852 -0.6207,-1.5959 -1.6548,-1.5959 -0.9162,0 -1.565,0.7107 -1.565,1.5959 0,0.9162 0.6783,1.6265 1.6254,1.6265 0.9737,0 1.5944,-0.7103 1.5944,-1.6265 z m -13.5065,2.6612 h 2.6017 V 64.4845 h -2.6017 z m -9.3645,-12.443 c 0.0286,1.6552 -0.6809,4.2273 -3.6077,4.2273 -2.6277,0 -3.7825,-2.4244 -3.9897,-4.2273 z m -7.6255,-1.8618 c 0.059,-3.5163 2.306,-4.9646 4.9057,-4.9646 1.8617,0 2.9846,0.3252 3.9608,0.7387 l 0.4422,-1.8615 c -0.9162,-0.415 -2.4812,-0.8881 -4.7565,-0.8881 -4.4056,0 -7.0348,2.8973 -7.0348,7.2122 0,4.3158 2.5416,7.7131 6.7074,7.7131 4.6703,0 5.9116,-4.108 5.9116,-6.738 0,-0.5317 -0.0581,-0.9459 -0.0887,-1.2118 z m -10.8153,1.8618 c 0.0281,1.6552 -0.6812,4.2273 -3.6057,4.2273 -2.6299,0 -3.7825,-2.4244 -3.9894,-4.2273 z m -7.6235,-1.8618 c 0.0567,-3.5163 2.304,-4.9646 4.9034,-4.9646 1.864,0 2.9871,0.3252 3.9611,0.7387 l 0.4445,-1.8615 c -0.9159,-0.415 -2.4834,-0.8881 -4.7591,-0.8881 -4.4033,0 -7.0347,2.8973 -7.0347,7.2122 0,4.3158 2.5415,7.7131 6.7096,7.7131 4.6706,0 5.9116,-4.108 5.9116,-6.738 0,-0.5317 -0.0604,-0.9459 -0.0887,-1.2118 z m -13.064,-6.679 v 12.3239 h -2.0109 v 1.9803 h 2.0109 v 0.6795 c 0,2.0098 0.4422,3.8418 1.6546,4.9958 0.9768,0.9442 2.2745,1.3297 3.4874,1.3297 0.9162,0 1.7141,-0.2069 2.2179,-0.4139 l -0.3572,-2.0109 c -0.3818,0.1775 -0.9162,0.3266 -1.6537,0.3266 -2.2153,0 -2.778,-1.9505 -2.778,-4.1386 v -0.7682 h 3.4574 v -1.9803 h -3.4574 V 64.4839 Z m -22.1641,0 v 12.3239 h -2.0084 v 1.9803 h 2.0084 v 0.6795 c 0,2.0098 0.4447,3.8418 1.6577,4.9958 0.9737,0.9442 2.2739,1.3297 3.4869,1.3297 0.9161,0 1.7141,-0.2069 2.2153,-0.4139 l -0.3547,-2.0109 c -0.3843,0.1775 -0.9161,0.3266 -1.6537,0.3266 -2.2178,0 -2.7779,-1.9505 -2.7779,-4.1386 v -0.7682 h 3.4551 v -1.9803 h -3.4551 V 64.4839 Z m -18.5284,7.1221 c 0,-3.1323 1.8028,-5.4967 4.3441,-5.4967 2.4826,0 4.3455,2.3346 4.3455,5.5559 0,2.4245 -1.2126,5.4978 -4.286,5.4978 -3.0736,0 -4.4036,-2.8372 -4.4036,-5.557 z m 11.3494,0.148 c 0,-5.2901 -3.6655,-7.5952 -7.1232,-7.5952 -3.8716,0 -6.8562,2.8369 -6.8562,7.3599 0,4.786 3.1326,7.5946 7.0926,7.5946 4.1077,0 6.8868,-2.9846 6.8868,-7.3593 z m -32.2121,1.2707 c 0.0298,1.6552 -0.6795,4.2273 -3.6051,4.2273 -2.6306,0 -3.7828,-2.4244 -3.9895,-4.2273 z m -7.6243,-1.8618 c 0.0578,-3.5163 2.3051,-4.9646 4.9056,-4.9646 1.8618,0 2.9846,0.3252 3.96,0.7387 l 0.443,-1.8615 c -0.9161,-0.415 -2.4823,-0.8881 -4.7576,-0.8881 -4.4034,0 -7.0333,2.8973 -7.0333,7.2122 0,4.3158 2.5401,7.7131 6.7081,7.7131 4.6693,0 5.9117,-4.108 5.9117,-6.738 0,-0.5317 -0.0604,-0.9459 -0.0899,-1.2118 z m -7.9495,-6.1475 c -0.6798,-0.3546 -2.187,-0.8277 -4.1077,-0.8277 -4.3146,0 -7.1232,2.9257 -7.1232,7.3006 0,4.4031 3.0152,7.596 7.6847,7.596 1.5364,0 2.8959,-0.3852 3.6051,-0.7398 l -0.5907,-2.0098 c -0.6208,0.3547 -1.5959,0.6798 -3.0144,0.6798 -3.2802,0 -5.0533,-2.4234 -5.0533,-5.4079 0,-3.3098 2.1277,-5.349 4.9646,-5.349 1.4774,0 2.4528,0.3829 3.1918,0.7092 z m -30.2318,9.9009 c 0,1.4777 -0.0298,2.6906 -0.1185,3.8724 h 2.3051 l 0.148,-2.3641 h 0.059 c 0.7106,1.3581 2.3655,2.6881 4.7296,2.6881 1.98,0 5.0533,-1.1823 5.0533,-6.0877 v -8.5416 h -2.6005 v 8.246 c 0,2.3051 -0.8572,4.2258 -3.3097,4.2258 -1.7153,0 -3.045,-1.2115 -3.4884,-2.6597 -0.1184,-0.3249 -0.1774,-0.7682 -0.1774,-1.2115 v -8.6006 h -2.6005 z m -9.3677,-1.8916 c 0.0298,1.6552 -0.6794,4.2273 -3.6051,4.2273 -2.6299,0 -3.7825,-2.4244 -3.9894,-4.2273 z m -7.6243,-1.8618 c 0.0578,-3.5163 2.3051,-4.9646 4.9056,-4.9646 1.8618,0 2.9846,0.3252 3.96,0.7387 l 0.4434,-1.8615 c -0.9159,-0.415 -2.4826,-0.8881 -4.758,-0.8881 -4.403,0 -7.0333,2.8973 -7.0333,7.2122 0,4.3158 2.5401,7.7131 6.7085,7.7131 4.6689,0 5.9116,-4.108 5.9116,-6.738 0,-0.5317 -0.0604,-0.9459 -0.0901,-1.2118 z m -11.9982,7.6258 h 2.6008 V 64.4845 h -2.6008 z m 2.8964,4.0178 c 0.0292,-0.8852 -0.6208,-1.5959 -1.6551,-1.5959 -0.9159,0 -1.5662,0.7107 -1.5662,1.5959 0,0.9162 0.6795,1.6265 1.6254,1.6265 0.9751,0 1.5959,-0.7103 1.5959,-1.6265 z m -9.574,-17.7911 c -0.6797,-0.3546 -2.1869,-0.8277 -4.1077,-0.8277 -4.3146,0 -7.1232,2.9257 -7.1232,7.3006 0,4.4031 3.0153,7.596 7.6848,7.596 1.5363,0 2.8958,-0.3852 3.6051,-0.7398 l -0.5908,-2.0098 c -0.6205,0.3547 -1.5959,0.6798 -3.0143,0.6798 -3.2803,0 -5.0534,-2.4234 -5.0534,-5.4079 0,-3.3098 2.1277,-5.349 4.9646,-5.349 1.4777,0 2.4529,0.3829 3.1919,0.7092 z m -25.888,2.128 c 0.7685,-0.5023 2.1277,-1.0341 3.4283,-1.0341 1.891,0 2.7776,0.9454 2.7776,2.1277 0,1.2413 -0.7387,1.9208 -2.6597,2.63 -2.571,0.9173 -3.7826,2.3357 -3.7826,4.0487 0,2.3063 1.8618,4.1976 4.9352,4.1976 1.4482,0 2.7189,-0.4139 3.5169,-0.8864 l -0.6494,-1.8916 c -0.5627,0.3546 -1.5968,0.8277 -2.9265,0.8277 -1.537,0 -2.3939,-0.8867 -2.3939,-1.9505 0,-1.1823 0.8569,-1.7152 2.7187,-2.4245 2.4823,-0.9459 3.7542,-2.1855 3.7542,-4.3146 0,-2.5118 -1.9513,-4.2848 -5.3501,-4.2848 -1.5661,0 -3.014,0.3838 -4.0186,0.9751 z m -18.9124,5.8813 c 0.0295,1.6552 -0.6798,4.2273 -3.6054,4.2273 -2.6303,0 -3.7826,-2.4244 -3.9898,-4.2273 z m -7.6244,-1.8618 c 0.0576,-3.5163 2.3052,-4.9646 4.9054,-4.9646 1.8618,0 2.9849,0.3252 3.9603,0.7387 l 0.4433,-1.8615 c -0.9164,-0.415 -2.4826,-0.8881 -4.7582,-0.8881 -4.4031,0 -7.0331,2.8973 -7.0331,7.2122 0,4.3158 2.5399,7.7131 6.7082,7.7131 4.669,0 5.9117,-4.108 5.9117,-6.738 0,-0.5317 -0.0604,-0.9459 -0.0902,-1.2118 z m -21.4852,14.3039 h 2.6008 V 76.542 h 0.059 c 0.415,0.7389 1.0638,1.3892 1.8618,1.8326 0.7682,0.443 1.6855,0.7384 2.6606,0.7384 1.9213,0 4.9946,-1.1818 4.9946,-6.1183 v -8.5108 h -2.6008 v 8.2165 c 0,2.3052 -0.8569,4.2554 -3.3097,4.2554 -1.6844,0 -3.0141,-1.182 -3.488,-2.6005 -0.1483,-0.3557 -0.1775,-0.739 -0.1775,-1.2413 v -8.6301 h -2.6008 z"
       style="fill:#2e71ac;fill-opacity:1;fill-rule:nonzero;stroke:none"
       transform="matrix(1.3333333,0,0,-1.3333333,0,384)" />
  </g>
</svg>
