<?xml version="1.0" encoding="UTF-8" standalone="no"?>
<svg
   version="1.1"
   viewBox="0 0 592 196"
   id="svg18"
   sodipodi:docname="INV NTTA - Tagline.svg"
   inkscape:version="1.4.2 (f4327f4, 2025-05-13)"
   xmlns:inkscape="http://www.inkscape.org/namespaces/inkscape"
   xmlns:sodipodi="http://sodipodi.sourceforge.net/DTD/sodipodi-0.dtd"
   xmlns="http://www.w3.org/2000/svg"
   xmlns:svg="http://www.w3.org/2000/svg">
  <sodipodi:namedview
     id="namedview18"
     pagecolor="#ffffff"
     bordercolor="#000000"
     borderopacity="0.25"
     inkscape:showpageshadow="2"
     inkscape:pageopacity="0.0"
     inkscape:pagecheckerboard="0"
     inkscape:deskcolor="#d1d1d1"
     inkscape:zoom="1"
     inkscape:cx="195.5"
     inkscape:cy="190.5"
     inkscape:window-width="1920"
     inkscape:window-height="991"
     inkscape:window-x="-9"
     inkscape:window-y="-9"
     inkscape:window-maximized="1"
     inkscape:current-layer="svg18" />
  <defs
     id="defs2">
    <clipPath
       id="clipPath71">
      <path
         d="m45.083-30.262 547.56 233.82-77.937 180.06-547.56-233.82z"
         clip-rule="evenodd"
         stroke-width=".32108"
         id="path1" />
    </clipPath>
    <clipPath
       id="clipPath72">
      <path
         d="m475.53 474.53-223.47-548.2 174.03-70.94 223.47 548.2z"
         clip-rule="evenodd"
         stroke-width=".31334"
         id="path2" />
    </clipPath>
    <clipPath
       id="clipPath72-4">
      <path
         d="m 475.53,474.53 -223.47,-548.2 174.03,-70.94 223.47,548.2 z"
         clip-rule="evenodd"
         stroke-width="0.31334"
         id="path2-8" />
    </clipPath>
  </defs>
  <path
     d="m96.465 67.016v60.625h-14.766v-60.625zm64.941 60.625h-14.766l-24.703-37.391v37.391h-14.766v-60.625h14.766l24.703 37.562v-37.562h14.766zm67.613-60.625-21.5 60.625h-18.484l-21.5-60.625h15.719l15.016 45.766 15.125-45.766z"
     fill="#264f8f"
     aria-label="INV"
     id="path3" />
  <path
     d="m 238.19,67.018 h 46.159 v 12.31 H 238.19 Z"
     fill="#21c174"
     id="path5"
     style="stroke-width:1.11007" />
  <path
     d="m 238.19,91.054 h 46.159 v 12.31 H 238.19 Z"
     fill="#21c174"
     id="path6"
     style="stroke-width:1.11007" />
  <path
     d="m 238.19,115.09 h 46.159 V 127.4 H 238.19 Z"
     fill="#21c174"
     id="path7"
     style="stroke-width:1.11007" />
  <path
     d="m 372.07997,51.539 c -0.375,-0.71875 -0.89844,-1.2578 -1.5625,-1.625 -0.65625,-0.375 -1.4219,-0.5625 -2.2969,-0.5625 -0.96093,0 -1.8125,0.21875 -2.5625,0.65625 -0.75,0.42969 -1.3398,1.0391 -1.7656,1.8281 -0.41797,0.79297 -0.625,1.7031 -0.625,2.7344 0,1.043 0.20703,1.9648 0.625,2.7656 0.42578,0.79297 1.0156,1.4062 1.7656,1.8438 0.75,0.42969 1.6016,0.64062 2.5625,0.64062 1.2891,0 2.3359,-0.35938 3.1406,-1.0781 0.80078,-0.72656 1.2891,-1.707 1.4688,-2.9375 h -5.4219 v -1.8906 h 7.9688 v 1.8438 c -0.15625,1.125 -0.55859,2.1641 -1.2031,3.1094 -0.64844,0.9375 -1.4844,1.6875 -2.5156,2.25 -1.0312,0.5625 -2.1797,0.84375 -3.4375,0.84375 -1.3672,0 -2.6094,-0.3125 -3.7344,-0.9375 -1.1172,-0.63281 -2.0078,-1.5156 -2.6719,-2.6406 -0.65625,-1.125 -0.98437,-2.3945 -0.98437,-3.8125 0,-1.4063 0.32812,-2.6719 0.98437,-3.7969 0.66407,-1.125 1.5625,-2 2.6875,-2.625 1.1328,-0.63281 2.375,-0.95312 3.7188,-0.95312 1.5312,0 2.8945,0.38281 4.0938,1.1406 1.207,0.75 2.082,1.8203 2.625,3.2031 z m 29.766,10.297 -3.3281,-5.7812 h -1.7969 v 5.7812 h -2.375 V 47.383 h 4.9844 c 1.1133,0 2.0508,0.19531 2.8125,0.57812 0.76953,0.38672 1.3477,0.90625 1.7344,1.5625 0.38282,0.65625 0.57813,1.3867 0.57813,2.1875 0,0.9375 -0.27734,1.793 -0.82813,2.5625 -0.54296,0.77344 -1.3867,1.2969 -2.5312,1.5781 l 3.5781,5.9844 z m -5.125,-7.6719 h 2.6094 c 0.88281,0 1.5508,-0.21875 2,-0.65625 0.45703,-0.44531 0.6875,-1.0469 0.6875,-1.7969 0,-0.75 -0.22656,-1.332 -0.67188,-1.75 -0.4375,-0.42578 -1.1094,-0.64062 -2.0156,-0.64062 h -2.6094 z m 34.004,7.8125 c -1.3438,0 -2.5859,-0.3125 -3.7188,-0.9375 -1.125,-0.63281 -2.0234,-1.5156 -2.6875,-2.6406 -0.65625,-1.1328 -0.98437,-2.4102 -0.98437,-3.8281 0,-1.4063 0.32812,-2.6719 0.98437,-3.7969 0.66407,-1.125 1.5625,-2 2.6875,-2.625 1.1328,-0.63281 2.375,-0.95312 3.7188,-0.95312 1.3516,0 2.5938,0.32031 3.7188,0.95312 1.1328,0.625 2.0234,1.5 2.6719,2.625 0.65625,1.125 0.98437,2.3906 0.98437,3.7969 0,1.418 -0.32812,2.6953 -0.98437,3.8281 -0.64844,1.125 -1.5391,2.0078 -2.6719,2.6406 -1.125,0.625 -2.3672,0.9375 -3.7188,0.9375 z m 0,-2.0469 c 0.95703,0 1.8047,-0.21875 2.5469,-0.65625 0.75,-0.4375 1.3359,-1.0625 1.7656,-1.875 0.42578,-0.8125 0.64063,-1.7539 0.64063,-2.8281 0,-1.0625 -0.21485,-1.9922 -0.64063,-2.7969 -0.42968,-0.80078 -1.0156,-1.4141 -1.7656,-1.8438 -0.74219,-0.4375 -1.5898,-0.65625 -2.5469,-0.65625 -0.96093,0 -1.8125,0.21875 -2.5625,0.65625 -0.75,0.42969 -1.3398,1.043 -1.7656,1.8438 -0.41797,0.80469 -0.625,1.7344 -0.625,2.7969 0,1.0742 0.20703,2.0156 0.625,2.8281 0.42578,0.8125 1.0156,1.4375 1.7656,1.875 0.75,0.4375 1.6016,0.65625 2.5625,0.65625 z m 28.695,-12.547 v 9.2188 c 0,1.0938 0.28515,1.918 0.85937,2.4688 0.58203,0.55469 1.3828,0.82812 2.4062,0.82812 1.0391,0 1.8477,-0.27344 2.4219,-0.82812 0.57031,-0.55078 0.85937,-1.375 0.85937,-2.4688 v -9.2188 h 2.375 v 9.1719 c 0,1.1797 -0.25781,2.1797 -0.76562,3 -0.51172,0.8125 -1.1992,1.4219 -2.0625,1.8281 -0.85547,0.39844 -1.8047,0.59375 -2.8438,0.59375 -1.043,0 -1.9922,-0.19531 -2.8438,-0.59375 -0.85547,-0.40625 -1.5312,-1.0156 -2.0312,-1.8281 -0.5,-0.82031 -0.75,-1.8203 -0.75,-3 v -9.1719 z m 38.758,4.2969 c 0,0.74219 -0.17969,1.4375 -0.53125,2.0938 -0.34375,0.64844 -0.89844,1.1797 -1.6562,1.5938 -0.76172,0.40625 -1.7422,0.60938 -2.9375,0.60938 h -2.6094 v 5.8594 h -2.375 v -14.453 h 4.9844 c 1.1133,0 2.0508,0.19531 2.8125,0.57812 0.76953,0.375 1.3477,0.89062 1.7344,1.5469 0.38281,0.64844 0.57812,1.3711 0.57812,2.1719 z m -5.125,2.3594 c 0.90625,0 1.5781,-0.20312 2.0156,-0.60938 0.44531,-0.41406 0.67187,-1 0.67187,-1.75 0,-1.5703 -0.89844,-2.3594 -2.6875,-2.3594 h -2.6094 v 4.7188 z"
     fill="#21c174"
     aria-label="GROUP"
     id="path8" />
  <path
     id="path23"
     clip-path="url(#clipPath71)"
     style="fill:#21c174;fill-opacity:1"
     d="m 84.953851,84.390419 -3.511498,3.667166 0.78011,22.101475 14.251381,-14.885029 z"
     transform="matrix(-0.99940622,0.03527478,0.03527579,0.99937765,174.75369,2.6595129)" />
  <path
     id="path21"
     clip-path="url(#clipPath71)"
     style="fill:#21c174;fill-opacity:1"
     d="M 81.445184,88.054296 82.244586,110.13553 96.473472,95.274423 84.952998,84.391142 Z"
     transform="matrix(0.99936748,-0.03635575,-0.03635679,-0.99933891,3.5115631,192.25396)" />
  <path
     d="M 350.31,127.64 H 335.544 L 310.841,90.249 V 127.64 H 296.075 V 67.015 h 14.766 l 24.703,37.562 V 67.015 H 350.31 Z M 404.622,67.015 V 78.843 H 388.56 V 127.64 H 373.794 V 78.843 H 357.732 V 67.015 Z m 51.035,0 V 78.843 H 439.595 V 127.64 H 424.829 V 78.843 H 408.767 V 67.015 Z m 45.164,49.922 h -22.625 l -3.625,10.703 H 459.102 L 481.04,67.015 h 17.109 l 21.922,60.625 h -15.625 z m -3.7969,-11.406 -7.5156,-22.188 -7.4219,22.188 z"
     fill="#264f8f"
     aria-label="NTTA"
     id="path4" />
  <path
     id="path9"
     style="fill:#264f8f;fill-opacity:1;stroke-width:0.999532"
     d="M 415.13867,67.015625 H 398 v 11.783203 h 17.13867 z" />
  <path
     id="path29"
     d="m 408.768,67.01562 v 11.82813 h 16.06054 v 48.79687 h 14.76758 V 78.84375 h 16.06055 V 67.01562 Z"
     style="fill:#21c174;fill-opacity:1" />
  <path
     d="m 403.77,67.015 h 15.83846 V 78.842125 H 403.77 Z"
     fill="#21c174"
     id="path13"
     sodipodi:nodetypes="ccccc"
     style="fill:#264f8f;fill-opacity:1;stroke-width:0.570326" />
  <path
     id="path24"
     clip-path="url(#clipPath72)"
     d="m 401.59908,67.038625 -14.29297,11.828125 23.16797,-0.0039 0.46679,-0.384766 z"
     transform="translate(18.0103,-0.023)"
     style="fill:#21c174;fill-opacity:1" />
  <path
     d="M 80.7031,162.111 H 78 l 4.2188,-20.109 h 2.6719 z m 14.535,-14.875 c 1.1641,0 2.0859,0.32031 2.7656,0.95312 0.6875,0.63672 1.0312,1.4844 1.0312,2.5469 0,0.58594 -0.125,1.4297 -0.375,2.5312 l -1.8125,8.8438 h -2.5 l 1.9688,-9.3438 c 0.16406,-0.88281 0.25,-1.5039 0.25,-1.8594 0,-0.53906 -0.18359,-0.95312 -0.54688,-1.2344 -0.36719,-0.28125 -0.82812,-0.42188 -1.3906,-0.42188 -0.8125,0 -1.6367,0.23438 -2.4688,0.70313 -0.83594,0.46875 -1.5117,1.1797 -2.0312,2.125 -0.46875,0.90625 -0.84375,2.043 -1.125,3.4062 l -1.375,6.625 h -2.5 l 3.0625,-14.547 h 2.25 l -0.53125,2.4375 0.04687,0.0937 c 0.76953,-0.80078 1.5703,-1.4766 2.4062,-2.0312 0.83203,-0.55078 1.7891,-0.82812 2.875,-0.82812 z m 15.605,0 c 1.1641,0 2.0859,0.32031 2.7656,0.95312 0.68749,0.63672 1.0312,1.4844 1.0312,2.5469 0,0.58594 -0.125,1.4297 -0.37499,2.5312 l -1.8125,8.8438 h -2.5 l 1.9688,-9.3438 c 0.16406,-0.88281 0.24999,-1.5039 0.24999,-1.8594 0,-0.53906 -0.18359,-0.95312 -0.54687,-1.2344 -0.36719,-0.28125 -0.82812,-0.42188 -1.3906,-0.42188 -0.8125,0 -1.6367,0.23438 -2.4688,0.70313 -0.83593,0.46875 -1.5117,1.1797 -2.0312,2.125 -0.46875,0.90625 -0.84375,2.043 -1.125,3.4062 l -1.375,6.625 h -2.5 l 3.0625,-14.547 h 2.25 l -0.53125,2.4375 0.0469,0.0937 c 0.76953,-0.80078 1.5703,-1.4766 2.4062,-2.0312 0.83203,-0.55078 1.7891,-0.82812 2.875,-0.82812 z m 13.871,0 c 1.7578,0 3.1758,0.54297 4.25,1.625 1.0703,1.0859 1.6094,2.5742 1.6094,4.4688 0,1.75 -0.35156,3.3203 -1.0469,4.7031 -0.69922,1.3867 -1.6484,2.4688 -2.8438,3.25 -1.1875,0.78125 -2.5,1.1719 -3.9375,1.1719 -1.0859,0 -2.0859,-0.22656 -3,-0.67188 -0.90625,-0.45703 -1.625,-1.1289 -2.1562,-2.0156 -0.53125,-0.88281 -0.79687,-1.957 -0.79687,-3.2188 0,-1.6641 0.3125,-3.207 0.9375,-4.625 0.625,-1.4258 1.5352,-2.5625 2.7344,-3.4062 1.1953,-0.85157 2.6133,-1.2812 4.25,-1.2812 z m -5.4531,9.0938 c 0,1.5117 0.35937,2.5898 1.0781,3.2344 0.72657,0.64844 1.5391,0.96875 2.4375,0.96875 1.2891,0 2.3906,-0.53906 3.2969,-1.625 0.90625,-1.082 1.5195,-2.3516 1.8438,-3.8125 0.125,-0.53125 0.1875,-1.1289 0.1875,-1.7969 0,-1.125 -0.28906,-2.0977 -0.85938,-2.9219 -0.5625,-0.82031 -1.4453,-1.2344 -2.6406,-1.2344 -1.1055,0 -2.0703,0.37109 -2.8906,1.1094 -0.8125,0.74219 -1.4297,1.6719 -1.8438,2.7969 -0.40625,1.1172 -0.60937,2.2109 -0.60937,3.2812 z m 16.684,-0.76563 c 0.125,0.82422 0.23438,1.6719 0.32813,2.5469 0.0937,0.86719 0.14062,1.4492 0.14062,1.75 h 0.0625 c 0.82031,-1.7383 1.4688,-3.0078 1.9375,-3.8125 l 4.7188,-8.4844 h 2.6406 l -8.3438,14.547 h -2.75 l -2.3906,-14.547 h 2.4219 z m 16.723,-8.3281 c 1.5938,0 2.9062,0.34375 3.9375,1.0312 1.0391,0.67969 1.5625,1.5859 1.5625,2.7188 0,0.30469 -0.039,0.72656 -0.10938,1.2656 -0.0625,0.53125 -0.14844,1.0234 -0.25,1.4688 l -0.8125,3.6406 c -0.25,1.0312 -0.375,1.8555 -0.375,2.4688 0,0.83594 0.0469,1.4141 0.14063,1.7344 0.0937,0.32422 0.14063,0.50782 0.14063,0.54688 h -2.5 c -0.11718,-0.375 -0.21874,-0.98438 -0.3125,-1.8281 -0.89844,0.80469 -1.75,1.3672 -2.5625,1.6875 -0.81249,0.32032 -1.6211,0.48438 -2.4219,0.48438 -1.2617,0 -2.3281,-0.375 -3.2031,-1.125 -0.86718,-0.75 -1.2969,-1.7812 -1.2969,-3.0938 0,-2.9766 2.1797,-4.5508 6.5469,-4.7188 1.25,-0.0312 2.1563,-0.082 2.7188,-0.15625 0.56251,-0.082 1.0664,-0.20703 1.5156,-0.375 0.0937,-0.32031 0.16406,-0.64453 0.21875,-0.96875 0.0625,-0.32031 0.0937,-0.5625 0.0937,-0.71875 0,-0.70703 -0.3125,-1.2227 -0.9375,-1.5469 -0.61719,-0.33203 -1.3516,-0.5 -2.2031,-0.5 -2.0625,0 -3.4023,0.89063 -4.0156,2.6719 l -2.5312,-0.23438 c 0.5,-1.4766 1.3203,-2.5859 2.4688,-3.3281 1.1562,-0.75 2.5508,-1.125 4.1875,-1.125 z m -1.0938,8.0781 c -0.8125,0.0625 -1.5234,0.16407 -2.125,0.29688 -0.60547,0.125 -1.1524,0.38672 -1.6406,0.78125 -0.49218,0.38672 -0.73437,0.96484 -0.73437,1.7344 0,0.67969 0.22265,1.25 0.67188,1.7188 0.44531,0.46094 1.1406,0.6875 2.0781,0.6875 0.67578,0 1.3203,-0.14062 1.9375,-0.42187 0.625,-0.28906 1.1602,-0.67969 1.6094,-1.1719 0.44531,-0.50781 0.78516,-1.0859 1.0156,-1.7344 0.23828,-0.65625 0.45312,-1.4844 0.64063,-2.4844 -0.73047,0.28125 -1.8828,0.48047 -3.4531,0.59375 z m 13.965,-7.75 h 2.4531 l -0.39062,1.9062 h -2.4531 l -1.7031,8.1719 c -0.1875,0.91797 -0.28125,1.4922 -0.28125,1.7188 0,0.59375 0.36328,0.89062 1.0938,0.89062 0.44531,0 0.92969,-0.0508 1.4531,-0.15625 l -0.42188,2.0156 c -0.5625,0.16406 -1.1406,0.25 -1.7344,0.25 -0.73046,0 -1.4141,-0.16797 -2.0469,-0.5 -0.63672,-0.34375 -0.95312,-0.91406 -0.95312,-1.7188 0,-0.28125 0.10937,-0.97266 0.32812,-2.0781 l 1.7969,-8.5938 h -1.9688 l 0.40626,-1.9062 h 1.9531 l 0.76563,-3.5938 2.8281,-1.7031 z m 10.43,-0.32812 c 1.457,0 2.6602,0.37109 3.6094,1.1094 0.67577,0.51172 1.1953,1.2031 1.5625,2.0781 0.36329,0.86719 0.54688,1.8125 0.54688,2.8438 0,0.67968 -0.0625,1.4062 -0.1875,2.1875 h -10.734 c -0.0312,0.30469 -0.0469,0.55859 -0.0469,0.76562 0,1.3242 0.30468,2.3555 0.92187,3.0938 0.61328,0.74219 1.3789,1.1094 2.2969,1.1094 0.76953,0 1.5781,-0.25781 2.4219,-0.78125 0.85156,-0.51953 1.5234,-1.3438 2.0156,-2.4688 l 2.4219,0.25 c -0.49219,1.4609 -1.375,2.6641 -2.6562,3.6094 -1.2812,0.94922 -2.6836,1.4219 -4.2031,1.4219 -1.0625,0 -2.0312,-0.24219 -2.9062,-0.71875 -0.86718,-0.47656 -1.5469,-1.1875 -2.0469,-2.125 -0.5,-0.9375 -0.75,-2.0508 -0.75,-3.3438 0,-1.3203 0.28125,-2.6797 0.84375,-4.0781 0.5625,-1.3945 1.4258,-2.5664 2.5938,-3.5156 1.1758,-0.95703 2.6094,-1.4375 4.2969,-1.4375 z m -4.8125,6.3125 h 8.1719 l 0.0312,-0.5625 c 0,-1.2383 -0.3086,-2.1875 -0.92188,-2.8438 -0.60547,-0.66406 -1.4219,-1 -2.4531,-1 -1.2305,0 -2.2461,0.43359 -3.0469,1.2969 -0.79297,0.85547 -1.3867,1.8906 -1.7812,3.1094 z"
     fill="#264f8f"
     aria-label="Innovate "
     id="path16" />
  <path
     d="m 194.4891,162.111 h -2.7031 l 4.2188,-20.109 h 2.6719 z m 14.539,-14.875 c 1.1641,0 2.0859,0.32031 2.7656,0.95312 0.6875,0.63672 1.0312,1.4844 1.0312,2.5469 0,0.58594 -0.125,1.4297 -0.375,2.5312 l -1.8125,8.8438 h -2.5 l 1.9688,-9.3438 c 0.16407,-0.88281 0.25,-1.5039 0.25,-1.8594 0,-0.53906 -0.18359,-0.95312 -0.54687,-1.2344 -0.36719,-0.28125 -0.82813,-0.42188 -1.3906,-0.42188 -0.8125,0 -1.6367,0.23438 -2.4688,0.70313 -0.83593,0.46875 -1.5117,1.1797 -2.0312,2.125 -0.46875,0.90625 -0.84375,2.043 -1.125,3.4062 l -1.375,6.625 h -2.5 l 3.0625,-14.547 h 2.25 l -0.53125,2.4375 0.0469,0.0937 c 0.76953,-0.80078 1.5703,-1.4766 2.4062,-2.0312 0.83203,-0.55078 1.7891,-0.82812 2.875,-0.82812 z m 11.137,0.32812 h 2.4531 l -0.39062,1.9062 h -2.4531 l -1.7031,8.1719 c -0.1875,0.91797 -0.28125,1.4922 -0.28125,1.7188 0,0.59375 0.36328,0.89062 1.0938,0.89062 0.44531,0 0.92969,-0.0508 1.4531,-0.15625 l -0.42187,2.0156 c -0.5625,0.16406 -1.1406,0.25 -1.7344,0.25 -0.73047,0 -1.4141,-0.16797 -2.0469,-0.5 -0.63672,-0.34375 -0.95313,-0.91406 -0.95313,-1.7188 0,-0.28125 0.10938,-0.97266 0.32813,-2.0781 l 1.7969,-8.5938 h -1.9688 l 0.40625,-1.9062 h 1.9531 l 0.76562,-3.5938 2.8281,-1.7031 z m 10.426,-0.32812 c 1.457,0 2.6602,0.37109 3.6094,1.1094 0.67578,0.51172 1.1953,1.2031 1.5625,2.0781 0.36328,0.86719 0.54688,1.8125 0.54688,2.8438 0,0.67968 -0.0625,1.4062 -0.1875,2.1875 h -10.734 c -0.0312,0.30469 -0.0469,0.55859 -0.0469,0.76562 0,1.3242 0.30469,2.3555 0.92188,3.0938 0.61328,0.74219 1.3789,1.1094 2.2969,1.1094 0.76953,0 1.5781,-0.25781 2.4219,-0.78125 0.85156,-0.51953 1.5234,-1.3438 2.0156,-2.4688 l 2.4219,0.25 c -0.49219,1.4609 -1.375,2.6641 -2.6562,3.6094 -1.2812,0.94922 -2.6836,1.4219 -4.2031,1.4219 -1.0625,0 -2.0312,-0.24219 -2.9062,-0.71875 -0.86719,-0.47656 -1.5469,-1.1875 -2.0469,-2.125 -0.5,-0.9375 -0.75,-2.0508 -0.75,-3.3438 0,-1.3203 0.28125,-2.6797 0.84375,-4.0781 0.5625,-1.3945 1.4258,-2.5664 2.5938,-3.5156 1.1758,-0.95703 2.6094,-1.4375 4.2969,-1.4375 z m -4.8125,6.3125 h 8.1719 l 0.0312,-0.5625 c 0,-1.2383 -0.30859,-2.1875 -0.92187,-2.8438 -0.60547,-0.66406 -1.4219,-1 -2.4531,-1 -1.2305,0 -2.2461,0.43359 -3.0469,1.2969 -0.79297,0.85547 -1.3867,1.8906 -1.7812,3.1094 z m 19.902,-6.3125 c 1.8945,0 3.375,0.90625 4.4375,2.7188 l 0.42188,-2.3906 h 2.2812 l -2.9531,14.047 c -0.24219,1.1562 -0.57031,2.1797 -0.98437,3.0781 -0.40625,0.90625 -1.0703,1.6719 -1.9844,2.2969 -0.90625,0.625 -2.1172,0.9375 -3.625,0.9375 -1.6172,0 -2.9453,-0.29688 -3.9844,-0.89063 -1.0312,-0.58593 -1.5469,-1.543 -1.5469,-2.875 0,-0.26172 0.0234,-0.50781 0.0781,-0.73437 l 2.5,0.23437 v 0.21875 c 0,0.69532 0.19531,1.207 0.59375,1.5312 0.40625,0.33203 1.1094,0.5 2.1094,0.5 0.82032,0 1.5039,-0.11718 2.0469,-0.34375 0.53906,-0.23047 0.98828,-0.60547 1.3438,-1.125 0.20703,-0.3125 0.40625,-0.79687 0.59375,-1.4531 0.19531,-0.65625 0.33593,-1.207 0.42187,-1.6562 l 0.1875,-1.1875 c -0.5,0.51172 -1.0703,0.96875 -1.7031,1.375 -0.63672,0.39844 -1.418,0.59375 -2.3438,0.59375 -0.96875,0 -1.8516,-0.23828 -2.6406,-0.71875 -0.78125,-0.47656 -1.4023,-1.1797 -1.8594,-2.1094 -0.46094,-0.9375 -0.6875,-2.0703 -0.6875,-3.4062 0,-1.4375 0.33203,-2.8203 1,-4.1562 0.66406,-1.3438 1.5547,-2.4258 2.6719,-3.25 1.125,-0.82031 2.332,-1.2344 3.625,-1.2344 z m -4.7656,8.4688 c 0,1.2188 0.25,2.2578 0.75,3.1094 0.50781,0.85547 1.3047,1.2812 2.3906,1.2812 1.0625,0 1.9844,-0.375 2.7656,-1.125 0.7812,-0.75 1.3672,-1.6641 1.7656,-2.75 0.40625,-1.0938 0.60938,-2.125 0.60938,-3.0938 0,-1.082 -0.32031,-2 -0.95313,-2.75 -0.625,-0.75 -1.4688,-1.125 -2.5312,-1.125 -1.0117,0 -1.875,0.375 -2.5938,1.125 -0.7188,0.75 -1.2656,1.6367 -1.6406,2.6562 -0.375,1.0234 -0.5625,1.9141 -0.5625,2.6719 z m 21.918,-8.4688 c 0.51954,0 1.1406,0.17969 1.8594,0.53125 l -1.0469,2.2969 c -0.40625,-0.3125 -0.875,-0.46875 -1.4063,-0.46875 -0.48046,0 -1.0234,0.17969 -1.625,0.53125 -0.59374,0.35547 -1.1562,0.94531 -1.6875,1.7656 -0.28125,0.46875 -0.5586,1.1055 -0.82813,1.9062 -0.27344,0.79297 -0.5,1.6172 -0.6875,2.4688 l -1.2344,5.8438 h -2.3594 l 3.0625,-14.547 h 2.1875 l -0.60937,2.8906 0.0469,0.0625 c 0.63281,-1.0703 1.3281,-1.8828 2.0781,-2.4375 0.75,-0.5625 1.5,-0.84375 2.25,-0.84375 z m 8.9844,0 c 1.5938,0 2.9062,0.34375 3.9375,1.0312 1.0391,0.67969 1.5625,1.5859 1.5625,2.7188 0,0.30469 -0.039,0.72656 -0.10937,1.2656 -0.0625,0.53125 -0.14844,1.0234 -0.25,1.4688 l -0.81251,3.6406 c -0.24999,1.0312 -0.37499,1.8555 -0.37499,2.4688 0,0.83594 0.0469,1.4141 0.14062,1.7344 0.0937,0.32422 0.14062,0.50782 0.14062,0.54688 h -2.5 c -0.11719,-0.375 -0.21876,-0.98438 -0.3125,-1.8281 -0.89844,0.80469 -1.75,1.3672 -2.5625,1.6875 -0.81251,0.32032 -1.6211,0.48438 -2.4219,0.48438 -1.2617,0 -2.3281,-0.375 -3.2031,-1.125 -0.86718,-0.75 -1.2969,-1.7812 -1.2969,-3.0938 0,-2.9766 2.1797,-4.5508 6.5469,-4.7188 1.25,-0.0312 2.1562,-0.082 2.7188,-0.15625 0.56249,-0.082 1.0664,-0.20703 1.5156,-0.375 0.0937,-0.32031 0.16406,-0.64453 0.21875,-0.96875 0.0625,-0.32031 0.0937,-0.5625 0.0937,-0.71875 0,-0.70703 -0.3125,-1.2227 -0.9375,-1.5469 -0.61718,-0.33203 -1.3516,-0.5 -2.2031,-0.5 -2.0625,0 -3.4023,0.89063 -4.0156,2.6719 l -2.5312,-0.23438 c 0.5,-1.4766 1.3203,-2.5859 2.4688,-3.3281 1.1562,-0.75 2.5508,-1.125 4.1875,-1.125 z m -1.0938,8.0781 c -0.8125,0.0625 -1.5234,0.16407 -2.125,0.29688 -0.60547,0.125 -1.1523,0.38672 -1.6406,0.78125 -0.49219,0.38672 -0.73438,0.96484 -0.73438,1.7344 0,0.67969 0.22266,1.25 0.67187,1.7188 0.44532,0.46094 1.1406,0.6875 2.0781,0.6875 0.67578,0 1.3203,-0.14062 1.9375,-0.42187 0.625,-0.28906 1.1602,-0.67969 1.6094,-1.1719 0.44531,-0.50781 0.78515,-1.0859 1.0156,-1.7344 0.23828,-0.65625 0.45313,-1.4844 0.64062,-2.4844 -0.73046,0.28125 -1.8828,0.48047 -3.4531,0.59375 z m 13.965,-7.75 h 2.4531 l -0.39062,1.9062 h -2.4531 l -1.7031,8.1719 c -0.18749,0.91797 -0.28124,1.4922 -0.28124,1.7188 0,0.59375 0.36328,0.89062 1.0938,0.89062 0.44531,0 0.92968,-0.0508 1.4531,-0.15625 l -0.42188,2.0156 c -0.56249,0.16406 -1.1406,0.25 -1.7344,0.25 -0.73047,0 -1.4141,-0.16797 -2.0469,-0.5 -0.63671,-0.34375 -0.95312,-0.91406 -0.95312,-1.7188 0,-0.28125 0.10938,-0.97266 0.32812,-2.0781 l 1.7969,-8.5938 h -1.9688 l 0.40625,-1.9062 h 1.9531 l 0.76563,-3.5938 2.8281,-1.7031 z m 10.426,-0.32812 c 1.457,0 2.6602,0.37109 3.6094,1.1094 0.67578,0.51172 1.1953,1.2031 1.5625,2.0781 0.36328,0.86719 0.54687,1.8125 0.54687,2.8438 0,0.67968 -0.0625,1.4062 -0.18749,2.1875 h -10.734 c -0.0312,0.30469 -0.0469,0.55859 -0.0469,0.76562 0,1.3242 0.30468,2.3555 0.92187,3.0938 0.61328,0.74219 1.3789,1.1094 2.2969,1.1094 0.76953,0 1.5781,-0.25781 2.4219,-0.78125 0.85156,-0.51953 1.5234,-1.3438 2.0156,-2.4688 l 2.4219,0.25 c -0.49219,1.4609 -1.375,2.6641 -2.6562,3.6094 -1.2812,0.94922 -2.6836,1.4219 -4.2031,1.4219 -1.0625,0 -2.0312,-0.24219 -2.9062,-0.71875 -0.86719,-0.47656 -1.5469,-1.1875 -2.0469,-2.125 -0.5,-0.9375 -0.75,-2.0508 -0.75,-3.3438 0,-1.3203 0.28125,-2.6797 0.84375,-4.0781 0.56251,-1.3945 1.4258,-2.5664 2.5938,-3.5156 1.1758,-0.95703 2.6094,-1.4375 4.2969,-1.4375 z m -4.8125,6.3125 h 8.1719 l 0.0312,-0.5625 c 0,-1.2383 -0.30859,-2.1875 -0.92187,-2.8438 -0.60547,-0.66406 -1.4219,-1 -2.4531,-1 -1.2305,0 -2.2461,0.43359 -3.0469,1.2969 -0.79296,0.85547 -1.3867,1.8906 -1.7812,3.1094 z"
     fill="#00bf63"
     aria-label="Integrate "
     id="path17" />
  <path
     d="m 328.8291,144.281 h -11.812 l -1.2969,6.2812 h 11.484 l -0.48438,2.2812 h -11.484 l -1.4531,6.9844 h 12.641 l -0.48438,2.2812 h -15.328 L 314.81444,142 h 14.5 z m 2.4727,17.828 h -2.5 L 333.0049,142 h 2.4688 z m 12.184,-14.875 c 1.457,0 2.6602,0.37109 3.6094,1.1094 0.67579,0.51172 1.1953,1.2031 1.5625,2.0781 0.36329,0.86719 0.54688,1.8125 0.54688,2.8438 0,0.67968 -0.0625,1.4062 -0.1875,2.1875 h -10.734 c -0.0312,0.30469 -0.0469,0.55859 -0.0469,0.76562 0,1.3242 0.30469,2.3555 0.92188,3.0938 0.61328,0.74219 1.3789,1.1094 2.2969,1.1094 0.76953,0 1.5781,-0.25781 2.4219,-0.78125 0.85156,-0.51953 1.5234,-1.3438 2.0156,-2.4688 l 2.4219,0.25 c -0.49219,1.4609 -1.375,2.6641 -2.6562,3.6094 -1.2812,0.94922 -2.6836,1.4219 -4.2031,1.4219 -1.0625,0 -2.0312,-0.24219 -2.9062,-0.71875 -0.86719,-0.47656 -1.5469,-1.1875 -2.0469,-2.125 -0.5,-0.9375 -0.75,-2.0508 -0.75,-3.3438 0,-1.3203 0.28125,-2.6797 0.84375,-4.0781 0.5625,-1.3945 1.4258,-2.5664 2.5938,-3.5156 1.1758,-0.95703 2.6094,-1.4375 4.2969,-1.4375 z m -4.8125,6.3125 h 8.1719 l 0.0312,-0.5625 c 0,-1.2383 -0.30859,-2.1875 -0.92187,-2.8438 -0.60547,-0.66406 -1.4219,-1 -2.4531,-1 -1.2305,0 -2.2461,0.43359 -3.0469,1.2969 -0.79297,0.85547 -1.3867,1.8906 -1.7812,3.1094 z m 15.898,2.0156 c 0.125,0.82422 0.23437,1.6719 0.32812,2.5469 0.0937,0.86719 0.14063,1.4492 0.14063,1.75 h 0.0625 c 0.82031,-1.7383 1.4688,-3.0078 1.9375,-3.8125 l 4.7188,-8.4844 h 2.6406 l -8.3438,14.547 h -2.75 l -2.3906,-14.547 h 2.4219 z m 16.723,-8.3281 c 1.5938,0 2.9062,0.34375 3.9375,1.0312 1.0391,0.67969 1.5625,1.5859 1.5625,2.7188 0,0.30469 -0.0391,0.72656 -0.10937,1.2656 -0.0625,0.53125 -0.14844,1.0234 -0.25,1.4688 l -0.8125,3.6406 c -0.25,1.0312 -0.375,1.8555 -0.375,2.4688 0,0.83594 0.0469,1.4141 0.14062,1.7344 0.0937,0.32422 0.14063,0.50782 0.14063,0.54688 h -2.5 c -0.11719,-0.375 -0.21875,-0.98438 -0.3125,-1.8281 -0.89844,0.80469 -1.75,1.3672 -2.5625,1.6875 -0.8125,0.32032 -1.6211,0.48438 -2.4219,0.48438 -1.2617,0 -2.3281,-0.375 -3.2031,-1.125 -0.86719,-0.75 -1.2969,-1.7812 -1.2969,-3.0938 0,-2.9766 2.1797,-4.5508 6.5469,-4.7188 1.25,-0.0312 2.1562,-0.082 2.7188,-0.15625 0.5625,-0.082 1.0664,-0.20703 1.5156,-0.375 0.0937,-0.32031 0.16407,-0.64453 0.21875,-0.96875 0.0625,-0.32031 0.0937,-0.5625 0.0937,-0.71875 0,-0.70703 -0.3125,-1.2227 -0.9375,-1.5469 -0.61718,-0.33203 -1.3516,-0.5 -2.2031,-0.5 -2.0625,0 -3.4024,0.89063 -4.0156,2.6719 l -2.5312,-0.23438 c 0.5,-1.4766 1.3203,-2.5859 2.4688,-3.3281 1.1562,-0.75 2.5508,-1.125 4.1875,-1.125 z m -1.0938,8.0781 c -0.8125,0.0625 -1.5234,0.16407 -2.125,0.29688 -0.60547,0.125 -1.1523,0.38672 -1.6406,0.78125 -0.49219,0.38672 -0.73438,0.96484 -0.73438,1.7344 0,0.67969 0.22266,1.25 0.67188,1.7188 0.44531,0.46094 1.1406,0.6875 2.0781,0.6875 0.67578,0 1.3203,-0.14062 1.9375,-0.42187 0.625,-0.28906 1.1602,-0.67969 1.6094,-1.1719 0.44531,-0.50781 0.78515,-1.0859 1.0156,-1.7344 0.23828,-0.65625 0.45313,-1.4844 0.64063,-2.4844 -0.73047,0.28125 -1.8828,0.48047 -3.4531,0.59375 z m 13.965,-7.75 h 2.4531 l -0.39063,1.9062 h -2.4531 l -1.7031,8.1719 c -0.1875,0.91797 -0.28126,1.4922 -0.28126,1.7188 0,0.59375 0.36329,0.89062 1.0938,0.89062 0.44531,0 0.92968,-0.0508 1.4531,-0.15625 l -0.42187,2.0156 c -0.5625,0.16406 -1.1406,0.25 -1.7344,0.25 -0.73048,0 -1.4141,-0.16797 -2.0469,-0.5 -0.63672,-0.34375 -0.95313,-0.91406 -0.95313,-1.7188 0,-0.28125 0.10938,-0.97266 0.32813,-2.0781 l 1.7969,-8.5938 h -1.9688 l 0.40625,-1.9062 h 1.9531 l 0.76562,-3.5938 2.8281,-1.7031 z m 10.43,-0.32812 c 1.457,0 2.6602,0.37109 3.6094,1.1094 0.67578,0.51172 1.1953,1.2031 1.5625,2.0781 0.36328,0.86719 0.54687,1.8125 0.54687,2.8438 0,0.67968 -0.0625,1.4062 -0.1875,2.1875 h -10.734 c -0.0312,0.30469 -0.0468,0.55859 -0.0468,0.76562 0,1.3242 0.30469,2.3555 0.92188,3.0938 0.61328,0.74219 1.3789,1.1094 2.2969,1.1094 0.76953,0 1.5781,-0.25781 2.4219,-0.78125 0.85156,-0.51953 1.5234,-1.3438 2.0156,-2.4688 l 2.4219,0.25 c -0.49219,1.4609 -1.375,2.6641 -2.6563,3.6094 -1.2812,0.94922 -2.6836,1.4219 -4.2031,1.4219 -1.0625,0 -2.0312,-0.24219 -2.9062,-0.71875 -0.86719,-0.47656 -1.5469,-1.1875 -2.0469,-2.125 -0.5,-0.9375 -0.75,-2.0508 -0.75,-3.3438 0,-1.3203 0.28125,-2.6797 0.84376,-4.0781 0.56249,-1.3945 1.4258,-2.5664 2.5938,-3.5156 1.1758,-0.95703 2.6094,-1.4375 4.2969,-1.4375 z m -4.8125,6.3125 h 8.1719 l 0.0312,-0.5625 c 0,-1.2383 -0.30859,-2.1875 -0.92187,-2.8438 -0.60547,-0.66406 -1.4219,-1 -2.4531,-1 -1.2305,0 -2.2461,0.43359 -3.0469,1.2969 -0.79296,0.85547 -1.3867,1.8906 -1.7812,3.1094 z m 35.844,-10.312 c 1.0312,0.86719 1.5469,2.0469 1.5469,3.5469 0,2.3047 -1.2344,3.9336 -3.7031,4.8906 1.0508,0.33593 1.8516,0.83984 2.4062,1.5156 0.56251,0.66797 0.84375,1.5156 0.84375,2.5469 0,1.125 -0.30859,2.1797 -0.92187,3.1562 -0.61719,0.96875 -1.4531,1.75 -2.5156,2.3438 -1.0547,0.58594 -2.1992,0.875 -3.4375,0.875 h -9.8281 l 4.1875,-20.109 h 6.6562 c 1.1016,0 2.0352,0.10157 2.7969,0.29688 0.76954,0.19922 1.4258,0.51172 1.9688,0.9375 z m -10.516,7.3594 h 4.3125 c 0.91406,0 1.6875,-0.0625 2.3125,-0.1875 0.63281,-0.13281 1.1445,-0.35937 1.5312,-0.67187 0.4375,-0.34375 0.77344,-0.75 1.0156,-1.2188 0.25,-0.47656 0.375,-1 0.375,-1.5625 0,-1.0508 -0.32812,-1.7578 -0.98437,-2.125 -0.65625,-0.36328 -1.5586,-0.54688 -2.7031,-0.54688 h -4.5469 z m -1.9375,9.2344 h 5.125 c 0.84375,0 1.5508,-0.0508 2.125,-0.15625 0.57031,-0.11328 1.1172,-0.3125 1.6406,-0.59375 0.60157,-0.33203 1.0703,-0.80469 1.4063,-1.4219 0.33203,-0.625 0.5,-1.2539 0.5,-1.8906 0,-1.125 -0.35547,-1.8828 -1.0625,-2.2812 -0.71093,-0.40625 -1.6641,-0.60938 -2.8594,-0.60938 h -5.4219 z m 20.375,-10.156 0.0469,0.0625 c 0.84375,-0.86328 1.6719,-1.4922 2.4844,-1.8906 0.81249,-0.40625 1.6484,-0.60938 2.5156,-0.60938 1.2383,0 2.1797,0.33594 2.8281,1 0.64453,0.65625 0.96875,1.4766 0.96875,2.4531 0,0.48047 -0.16407,1.5078 -0.48438,3.0781 l -1.7344,8.3438 h -2.5 l 1.7969,-8.5 c 0.28906,-1.5 0.4375,-2.4102 0.4375,-2.7344 0,-0.46875 -0.16796,-0.85157 -0.5,-1.1562 -0.33594,-0.3125 -0.80468,-0.46875 -1.4062,-0.46875 -0.84375,0 -1.6953,0.23046 -2.5469,0.6875 -0.84375,0.46093 -1.5117,1.1484 -2,2.0625 -0.44921,0.84375 -0.83984,2.1016 -1.1719,3.7656 l -1.3281,6.3438 h -2.5 l 4.2188,-20.109 h 2.4688 z m 18.887,-2.4375 c 1.5938,0 2.9062,0.34375 3.9375,1.0312 1.0391,0.67969 1.5625,1.5859 1.5625,2.7188 0,0.30469 -0.039,0.72656 -0.10938,1.2656 -0.0625,0.53125 -0.14843,1.0234 -0.25,1.4688 l -0.8125,3.6406 c -0.25,1.0312 -0.375,1.8555 -0.375,2.4688 0,0.83594 0.0469,1.4141 0.14063,1.7344 0.0937,0.32422 0.14062,0.50782 0.14062,0.54688 h -2.5 c -0.11718,-0.375 -0.21875,-0.98438 -0.31249,-1.8281 -0.89844,0.80469 -1.75,1.3672 -2.5625,1.6875 -0.8125,0.32032 -1.6211,0.48438 -2.4219,0.48438 -1.2617,0 -2.3281,-0.375 -3.2031,-1.125 -0.86718,-0.75 -1.2969,-1.7812 -1.2969,-3.0938 0,-2.9766 2.1797,-4.5508 6.5469,-4.7188 1.25,-0.0312 2.1562,-0.082 2.7188,-0.15625 0.5625,-0.082 1.0664,-0.20703 1.5156,-0.375 0.0937,-0.32031 0.16406,-0.64453 0.21875,-0.96875 0.0625,-0.32031 0.0937,-0.5625 0.0937,-0.71875 0,-0.70703 -0.3125,-1.2227 -0.9375,-1.5469 -0.61719,-0.33203 -1.3516,-0.5 -2.2031,-0.5 -2.0625,0 -3.4023,0.89063 -4.0156,2.6719 l -2.5312,-0.23438 c 0.5,-1.4766 1.3203,-2.5859 2.4688,-3.3281 1.1562,-0.75 2.5508,-1.125 4.1875,-1.125 z m -1.0938,8.0781 c -0.8125,0.0625 -1.5234,0.16407 -2.125,0.29688 -0.60547,0.125 -1.1524,0.38672 -1.6406,0.78125 -0.4922,0.38672 -0.73438,0.96484 -0.73438,1.7344 0,0.67969 0.22266,1.25 0.67187,1.7188 0.44531,0.46094 1.1406,0.6875 2.0781,0.6875 0.67578,0 1.3203,-0.14062 1.9375,-0.42187 0.625,-0.28906 1.1602,-0.67969 1.6094,-1.1719 0.44532,-0.50781 0.78516,-1.0859 1.0156,-1.7344 0.23828,-0.65625 0.45313,-1.4844 0.64062,-2.4844 -0.73047,0.28125 -1.8828,0.48047 -3.4531,0.59375 z m 17.34,-8.0781 c 0.51953,0 1.1406,0.17969 1.8594,0.53125 l -1.0469,2.2969 c -0.40625,-0.3125 -0.875,-0.46875 -1.4062,-0.46875 -0.48047,0 -1.0234,0.17969 -1.625,0.53125 -0.59375,0.35547 -1.1562,0.94531 -1.6875,1.7656 -0.28125,0.46875 -0.5586,1.1055 -0.82812,1.9062 -0.27344,0.79297 -0.5,1.6172 -0.68751,2.4688 l -1.2344,5.8438 h -2.3594 l 3.0625,-14.547 h 2.1875 l -0.60938,2.8906 0.0468,0.0625 c 0.63281,-1.0703 1.3281,-1.8828 2.0781,-2.4375 0.75,-0.5625 1.5,-0.84375 2.25,-0.84375 z m 8.9844,0 c 1.5938,0 2.9063,0.34375 3.9375,1.0312 1.0391,0.67969 1.5625,1.5859 1.5625,2.7188 0,0.30469 -0.0391,0.72656 -0.10938,1.2656 -0.0625,0.53125 -0.14844,1.0234 -0.25,1.4688 l -0.8125,3.6406 c -0.25,1.0312 -0.375,1.8555 -0.375,2.4688 0,0.83594 0.0469,1.4141 0.14062,1.7344 0.0938,0.32422 0.14063,0.50782 0.14063,0.54688 h -2.5 c -0.11719,-0.375 -0.21875,-0.98438 -0.3125,-1.8281 -0.89844,0.80469 -1.75,1.3672 -2.5625,1.6875 -0.8125,0.32032 -1.6211,0.48438 -2.4219,0.48438 -1.2617,0 -2.3281,-0.375 -3.2031,-1.125 -0.86719,-0.75 -1.2969,-1.7812 -1.2969,-3.0938 0,-2.9766 2.1797,-4.5508 6.5469,-4.7188 1.25,-0.0312 2.1562,-0.082 2.7188,-0.15625 0.5625,-0.082 1.0664,-0.20703 1.5156,-0.375 0.0938,-0.32031 0.16407,-0.64453 0.21876,-0.96875 0.0625,-0.32031 0.0937,-0.5625 0.0937,-0.71875 0,-0.70703 -0.31251,-1.2227 -0.93751,-1.5469 -0.61718,-0.33203 -1.3516,-0.5 -2.2031,-0.5 -2.0625,0 -3.4023,0.89063 -4.0156,2.6719 l -2.5313,-0.23438 c 0.5,-1.4766 1.3203,-2.5859 2.4688,-3.3281 1.1563,-0.75 2.5508,-1.125 4.1875,-1.125 z m -1.0938,8.0781 c -0.81249,0.0625 -1.5234,0.16407 -2.125,0.29688 -0.60548,0.125 -1.1524,0.38672 -1.6406,0.78125 -0.49219,0.38672 -0.73437,0.96484 -0.73437,1.7344 0,0.67969 0.22265,1.25 0.67187,1.7188 0.44531,0.46094 1.1406,0.6875 2.0781,0.6875 0.67579,0 1.3203,-0.14062 1.9375,-0.42187 0.625,-0.28906 1.1602,-0.67969 1.6094,-1.1719 0.44531,-0.50781 0.78516,-1.0859 1.0156,-1.7344 0.23828,-0.65625 0.45312,-1.4844 0.64062,-2.4844 -0.73047,0.28125 -1.8828,0.48047 -3.4531,0.59375 z m 13.965,-7.75 h 2.4531 l -0.39062,1.9062 h -2.4531 l -1.7031,8.1719 c -0.1875,0.91797 -0.28125,1.4922 -0.28125,1.7188 0,0.59375 0.36328,0.89062 1.0938,0.89062 0.44531,0 0.92969,-0.0508 1.4531,-0.15625 l -0.42188,2.0156 c -0.5625,0.16406 -1.1406,0.25 -1.7344,0.25 -0.73047,0 -1.4141,-0.16797 -2.0469,-0.5 -0.63672,-0.34375 -0.95312,-0.91406 -0.95312,-1.7188 0,-0.28125 0.10937,-0.97266 0.32812,-2.0781 l 1.7969,-8.5938 h -1.9688 l 0.40625,-1.9062 h 1.9531 l 0.76562,-3.5938 2.8281,-1.7031 z m 5.6797,14.547 h -2.8125 l 0.59375,-2.8125 h 2.8125 z m 7.8008,0 h -2.8125 l 0.59375,-2.8125 h 2.8125 z m 7.8047,0 H 509.01 l 0.59376,-2.8125 h 2.8125 z"
     fill="#264f8f"
     aria-label="Elevate Bharat..."
     id="path18" />
</svg>
