<?xml version="1.0" encoding="UTF-8" standalone="no"?>
<svg
   version="1.1"
   viewBox="0 0 592 196"
   id="svg18"
   sodipodi:docname="INV NTTA.svg"
   inkscape:version="1.4.2 (f4327f4, 2025-05-13)"
   xmlns:inkscape="http://www.inkscape.org/namespaces/inkscape"
   xmlns:sodipodi="http://sodipodi.sourceforge.net/DTD/sodipodi-0.dtd"
   xmlns="http://www.w3.org/2000/svg"
   xmlns:svg="http://www.w3.org/2000/svg">
  <sodipodi:namedview
     id="namedview18"
     pagecolor="#ffffff"
     bordercolor="#000000"
     borderopacity="0.25"
     inkscape:showpageshadow="2"
     inkscape:pageopacity="0.0"
     inkscape:pagecheckerboard="0"
     inkscape:deskcolor="#d1d1d1"
     inkscape:zoom="1"
     inkscape:cx="195.5"
     inkscape:cy="190.5"
     inkscape:window-width="1920"
     inkscape:window-height="991"
     inkscape:window-x="-9"
     inkscape:window-y="-9"
     inkscape:window-maximized="1"
     inkscape:current-layer="svg18" />
  <defs
     id="defs2">
    <clipPath
       id="clipPath71">
      <path
         d="m45.083-30.262 547.56 233.82-77.937 180.06-547.56-233.82z"
         clip-rule="evenodd"
         stroke-width=".32108"
         id="path1" />
    </clipPath>
    <clipPath
       id="clipPath72">
      <path
         d="m475.53 474.53-223.47-548.2 174.03-70.94 223.47 548.2z"
         clip-rule="evenodd"
         stroke-width=".31334"
         id="path2" />
    </clipPath>
    <clipPath
       id="clipPath72-4">
      <path
         d="m 475.53,474.53 -223.47,-548.2 174.03,-70.94 223.47,548.2 z"
         clip-rule="evenodd"
         stroke-width="0.31334"
         id="path2-8" />
    </clipPath>
  </defs>
  <path
     d="m96.465 67.016v60.625h-14.766v-60.625zm64.941 60.625h-14.766l-24.703-37.391v37.391h-14.766v-60.625h14.766l24.703 37.562v-37.562h14.766zm67.613-60.625-21.5 60.625h-18.484l-21.5-60.625h15.719l15.016 45.766 15.125-45.766z"
     fill="#264f8f"
     aria-label="INV"
     id="path3" />
  <path
     d="m 238.19,67.018 h 46.159 v 12.31 H 238.19 Z"
     fill="#21c174"
     id="path5"
     style="stroke-width:1.11007" />
  <path
     d="m 238.19,91.054 h 46.159 v 12.31 H 238.19 Z"
     fill="#21c174"
     id="path6"
     style="stroke-width:1.11007" />
  <path
     d="m 238.19,115.09 h 46.159 V 127.4 H 238.19 Z"
     fill="#21c174"
     id="path7"
     style="stroke-width:1.11007" />
  <path
     d="m 372.07997,51.539 c -0.375,-0.71875 -0.89844,-1.2578 -1.5625,-1.625 -0.65625,-0.375 -1.4219,-0.5625 -2.2969,-0.5625 -0.96093,0 -1.8125,0.21875 -2.5625,0.65625 -0.75,0.42969 -1.3398,1.0391 -1.7656,1.8281 -0.41797,0.79297 -0.625,1.7031 -0.625,2.7344 0,1.043 0.20703,1.9648 0.625,2.7656 0.42578,0.79297 1.0156,1.4062 1.7656,1.8438 0.75,0.42969 1.6016,0.64062 2.5625,0.64062 1.2891,0 2.3359,-0.35938 3.1406,-1.0781 0.80078,-0.72656 1.2891,-1.707 1.4688,-2.9375 h -5.4219 v -1.8906 h 7.9688 v 1.8438 c -0.15625,1.125 -0.55859,2.1641 -1.2031,3.1094 -0.64844,0.9375 -1.4844,1.6875 -2.5156,2.25 -1.0312,0.5625 -2.1797,0.84375 -3.4375,0.84375 -1.3672,0 -2.6094,-0.3125 -3.7344,-0.9375 -1.1172,-0.63281 -2.0078,-1.5156 -2.6719,-2.6406 -0.65625,-1.125 -0.98437,-2.3945 -0.98437,-3.8125 0,-1.4063 0.32812,-2.6719 0.98437,-3.7969 0.66407,-1.125 1.5625,-2 2.6875,-2.625 1.1328,-0.63281 2.375,-0.95312 3.7188,-0.95312 1.5312,0 2.8945,0.38281 4.0938,1.1406 1.207,0.75 2.082,1.8203 2.625,3.2031 z m 29.766,10.297 -3.3281,-5.7812 h -1.7969 v 5.7812 h -2.375 V 47.383 h 4.9844 c 1.1133,0 2.0508,0.19531 2.8125,0.57812 0.76953,0.38672 1.3477,0.90625 1.7344,1.5625 0.38282,0.65625 0.57813,1.3867 0.57813,2.1875 0,0.9375 -0.27734,1.793 -0.82813,2.5625 -0.54296,0.77344 -1.3867,1.2969 -2.5312,1.5781 l 3.5781,5.9844 z m -5.125,-7.6719 h 2.6094 c 0.88281,0 1.5508,-0.21875 2,-0.65625 0.45703,-0.44531 0.6875,-1.0469 0.6875,-1.7969 0,-0.75 -0.22656,-1.332 -0.67188,-1.75 -0.4375,-0.42578 -1.1094,-0.64062 -2.0156,-0.64062 h -2.6094 z m 34.004,7.8125 c -1.3438,0 -2.5859,-0.3125 -3.7188,-0.9375 -1.125,-0.63281 -2.0234,-1.5156 -2.6875,-2.6406 -0.65625,-1.1328 -0.98437,-2.4102 -0.98437,-3.8281 0,-1.4063 0.32812,-2.6719 0.98437,-3.7969 0.66407,-1.125 1.5625,-2 2.6875,-2.625 1.1328,-0.63281 2.375,-0.95312 3.7188,-0.95312 1.3516,0 2.5938,0.32031 3.7188,0.95312 1.1328,0.625 2.0234,1.5 2.6719,2.625 0.65625,1.125 0.98437,2.3906 0.98437,3.7969 0,1.418 -0.32812,2.6953 -0.98437,3.8281 -0.64844,1.125 -1.5391,2.0078 -2.6719,2.6406 -1.125,0.625 -2.3672,0.9375 -3.7188,0.9375 z m 0,-2.0469 c 0.95703,0 1.8047,-0.21875 2.5469,-0.65625 0.75,-0.4375 1.3359,-1.0625 1.7656,-1.875 0.42578,-0.8125 0.64063,-1.7539 0.64063,-2.8281 0,-1.0625 -0.21485,-1.9922 -0.64063,-2.7969 -0.42968,-0.80078 -1.0156,-1.4141 -1.7656,-1.8438 -0.74219,-0.4375 -1.5898,-0.65625 -2.5469,-0.65625 -0.96093,0 -1.8125,0.21875 -2.5625,0.65625 -0.75,0.42969 -1.3398,1.043 -1.7656,1.8438 -0.41797,0.80469 -0.625,1.7344 -0.625,2.7969 0,1.0742 0.20703,2.0156 0.625,2.8281 0.42578,0.8125 1.0156,1.4375 1.7656,1.875 0.75,0.4375 1.6016,0.65625 2.5625,0.65625 z m 28.695,-12.547 v 9.2188 c 0,1.0938 0.28515,1.918 0.85937,2.4688 0.58203,0.55469 1.3828,0.82812 2.4062,0.82812 1.0391,0 1.8477,-0.27344 2.4219,-0.82812 0.57031,-0.55078 0.85937,-1.375 0.85937,-2.4688 v -9.2188 h 2.375 v 9.1719 c 0,1.1797 -0.25781,2.1797 -0.76562,3 -0.51172,0.8125 -1.1992,1.4219 -2.0625,1.8281 -0.85547,0.39844 -1.8047,0.59375 -2.8438,0.59375 -1.043,0 -1.9922,-0.19531 -2.8438,-0.59375 -0.85547,-0.40625 -1.5312,-1.0156 -2.0312,-1.8281 -0.5,-0.82031 -0.75,-1.8203 -0.75,-3 v -9.1719 z m 38.758,4.2969 c 0,0.74219 -0.17969,1.4375 -0.53125,2.0938 -0.34375,0.64844 -0.89844,1.1797 -1.6562,1.5938 -0.76172,0.40625 -1.7422,0.60938 -2.9375,0.60938 h -2.6094 v 5.8594 h -2.375 v -14.453 h 4.9844 c 1.1133,0 2.0508,0.19531 2.8125,0.57812 0.76953,0.375 1.3477,0.89062 1.7344,1.5469 0.38281,0.64844 0.57812,1.3711 0.57812,2.1719 z m -5.125,2.3594 c 0.90625,0 1.5781,-0.20312 2.0156,-0.60938 0.44531,-0.41406 0.67187,-1 0.67187,-1.75 0,-1.5703 -0.89844,-2.3594 -2.6875,-2.3594 h -2.6094 v 4.7188 z"
     fill="#21c174"
     aria-label="GROUP"
     id="path8" />
  <path
     id="path23"
     clip-path="url(#clipPath71)"
     style="fill:#21c174;fill-opacity:1"
     d="m 84.953851,84.390419 -3.511498,3.667166 0.78011,22.101475 14.251381,-14.885029 z"
     transform="matrix(-0.99940622,0.03527478,0.03527579,0.99937765,174.75369,2.6595129)" />
  <path
     id="path21"
     clip-path="url(#clipPath71)"
     style="fill:#21c174;fill-opacity:1"
     d="M 81.445184,88.054296 82.244586,110.13553 96.473472,95.274423 84.952998,84.391142 Z"
     transform="matrix(0.99936748,-0.03635575,-0.03635679,-0.99933891,3.5115631,192.25396)" />
  <path
     d="M 350.31,127.64 H 335.544 L 310.841,90.249 V 127.64 H 296.075 V 67.015 h 14.766 l 24.703,37.562 V 67.015 H 350.31 Z M 404.622,67.015 V 78.843 H 388.56 V 127.64 H 373.794 V 78.843 H 357.732 V 67.015 Z m 51.035,0 V 78.843 H 439.595 V 127.64 H 424.829 V 78.843 H 408.767 V 67.015 Z m 45.164,49.922 h -22.625 l -3.625,10.703 H 459.102 L 481.04,67.015 h 17.109 l 21.922,60.625 h -15.625 z m -3.7969,-11.406 -7.5156,-22.188 -7.4219,22.188 z"
     fill="#264f8f"
     aria-label="NTTA"
     id="path4" />
  <path
     id="path9"
     style="fill:#264f8f;fill-opacity:1;stroke-width:0.999532"
     d="M 415.13867,67.015625 H 398 v 11.783203 h 17.13867 z" />
  <path
     id="path29"
     d="m 408.768,67.01562 v 11.82813 h 16.06054 v 48.79687 h 14.76758 V 78.84375 h 16.06055 V 67.01562 Z"
     style="fill:#21c174;fill-opacity:1" />
  <path
     d="m 403.77,67.015 h 15.83846 V 78.842125 H 403.77 Z"
     fill="#21c174"
     id="path13"
     sodipodi:nodetypes="ccccc"
     style="fill:#264f8f;fill-opacity:1;stroke-width:0.570326" />
  <path
     id="path24"
     clip-path="url(#clipPath72)"
     d="m 401.59908,67.038625 -14.29297,11.828125 23.16797,-0.0039 0.46679,-0.384766 z"
     transform="translate(18.0103,-0.023)"
     style="fill:#21c174;fill-opacity:1" />
</svg>
